<?xml version="1.0" encoding="UTF-8"?>
<svg id="Layer_2" data-name="Layer 2" xmlns="http://www.w3.org/2000/svg" xmlns:xlink="http://www.w3.org/1999/xlink" viewBox="0 0 512.91 497.8">
  <defs>
    <style>
      .cls-1 {
        fill: url(#linear-gradient);
      }

      .cls-1, .cls-2, .cls-3 {
        stroke: #fff;
        stroke-miterlimit: 10;
      }

      .cls-2 {
        fill: url(#linear-gradient-3);
      }

      .cls-3 {
        fill: url(#linear-gradient-2);
      }
    </style>
    <linearGradient id="linear-gradient" x1="228" y1="61.97" x2="476.13" y2="235.71" gradientUnits="userSpaceOnUse">
      <stop offset="0" stop-color="#09AAEE"/>
      <stop offset=".25" stop-color="#280bd6"/>
      <stop offset=".5" stop-color="#09AAEE"/>
      <stop offset="1" stop-color="#000"/>
    </linearGradient>
    <linearGradient id="linear-gradient-2" x1="30.57" y1="151.44" x2="397.19" y2="408.15" xlink:href="#linear-gradient"/>
    <linearGradient id="linear-gradient-3" x1="298.63" y1="231.98" x2="493.79" y2="368.63" xlink:href="#linear-gradient"/>
  </defs>
  <g id="Capa_1" data-name="Capa 1">
    <g>
      <path class="cls-1" d="m270,236.8c1.5,1.2,3.3,1.9,5.2,1.9.4,0,.9,0,1.3-.1l219.5-35.5c4.4-.7,7.3-4.8,6.6-9.2-8.6-53.4-36-102.4-77.3-137.9C383.5,20.2,330.2.5,275.2.5c-4.4,0-8,3.6-8,8v222.3c0,2.3,1,4.5,2.8,6h0Z"/>
      <path class="cls-3" d="m238.8,264.5V44.8c0-4.4-3.6-8-8-8-61.5,0-119.3,24-162.8,67.4C24.5,147.7.5,205.5.5,267.1s24,119.3,67.5,162.8,101.3,67.4,162.8,67.4c48,0,94.1-14.7,133.1-42.4,3.6-2.6,4.4-7.5,1.9-11.1l-127-179.3Z"/>
      <path class="cls-2" d="m509.6,232.6c-.3-2.1-1.5-4-3.2-5.2s-3.9-1.8-6-1.4l-219.5,35.5c-2.7.4-5,2.3-6.1,4.8s-.7,5.5.9,7.7l128.5,181.4c1.2,1.7,3.1,2.9,5.2,3.3.4.1.9.1,1.3.1,1.6,0,3.3-.5,4.6-1.5,29.4-20.9,53.8-48.7,70.6-80.5,17.4-32.9,26.5-70,26.5-107.4.1-12.2-.9-24.6-2.8-36.8Z"/>
    </g>
  </g>
</svg>