<?xml version="1.0" encoding="utf-8"?>
<!-- Generator: Adobe Illustrator 27.8.1, SVG Export Plug-In . SVG Version: 6.00 Build 0)  -->
<svg version="1.1" id="Layer_1" xmlns="http://www.w3.org/2000/svg" xmlns:xlink="http://www.w3.org/1999/xlink" x="0px" y="0px"
	 viewBox="0 0 5935 4280" style="enable-background:new 0 0 5935 4280;" xml:space="preserve">
<style type="text/css">
	.st0{fill:#FFFFFF;}
	.st1{fill:#D80027;}
	.st2{fill:#F0F0F0;}
	.st3{fill:#012169;}
	.st4{fill:#C8102E;}
</style>
<path class="st0" d="M5859.6,2139.8c0,856.5-694.3,1550.8-1550.8,1550.8s-1550.8-694.3-1550.8-1550.8S3452.4,589,4308.8,589
	S5859.6,1283.3,5859.6,2139.8"/>
<circle class="st1" cx="4308.8" cy="2139.8" r="1461.3"/>
<path class="st2" d="M5076.9,1883.7h-512.1v-512.1h-512.1v512.1h-512.1v512.1h512.1v512.1h512.1v-512.1h512.1V1883.7z"/>
<g>
	<circle class="st0" cx="1626.2" cy="2139.8" r="1550.8"/>
	<g id="Layer_2_00000142856043957945310770000005344128042421421223_">
		<g id="Australia">
			<circle class="st3" cx="1626.2" cy="2139.8" r="1450.4"/>
			<path class="st0" d="M1444.4,701.9L901,1245.5l-211.8-211.9c-60.9,51.7-117.5,108.3-169.1,169.2l211.8,211.8L188.4,1958
				c-8,60.3-12.2,121-12.6,181.8h169.1L901,1583.7l556.1,556.1h169.1v-169.1l-556.1-556.1l556.1-556.1V689.4
				C1565.4,689.8,1504.7,694,1444.4,701.9L1444.4,701.9z"/>
			<path class="st0" d="M1046,810.8c-103,45.4-200.3,102.6-290.1,170.6v191.5H547.3c-126.4,140.8-224,305.1-287.2,483.5h495.8v483.5
				H1046v-483.5h580.2v-483.5H1046V810.8z"/>
			<path class="st4" d="M1626.2,689.4c-40.1,0-79.5,2.8-118.8,6l-662.7,662.8l-244.1-244.1c-18.8,19.3-35.9,39.3-53.7,59.1
				l297.7,297.7l-668.8,668.8h112.7l668.8-668.8l668.8,668.8v-112.8l-668.8-668.7L1626.2,689.4z"/>
			<path class="st4" d="M988,838.9c-60.3,29-118.4,62.1-174,99.2v331.5H467.8c-67.9,89.7-125.2,187.1-170.6,290.1H814v580.2h174
				v-580.2h638.2v-290.1H988V838.9z"/>
			<g>
				<path class="st0" d="M944.6,2802.1l88.2,92.8l-17.6-126.8l127.5-11.1l-110.1-65.4l70.9-106.6l-119.7,45.3l-39.2-121.8
					l-39.3,121.8l-119.7-45.3l70.9,106.6L746.4,2757l127.5,11.1l-17.5,126.8L944.6,2802.1z"/>
				<path class="st0" d="M1901.2,2138.9l56,59l-11.1-80.5l81-7.1l-69.9-41.5l45-67.8l-76,28.8l-24.9-77.4l-24.8,77.4l-76.1-28.8
					l45.1,67.8l-69.9,41.5l80.9,7.1l-11.1,80.5L1901.2,2138.9z"/>
				<path class="st0" d="M2353,1649.4l56.1,58.9l-11.2-80.5l81-7.1l-69.9-41.5l45-67.7l-76,28.8l-24.9-77.5l-24.8,77.5l-76-28.8
					l45,67.7l-69.9,41.5l81,7.1l-11.2,80.5L2353,1649.4z"/>
				<path class="st0" d="M2754.7,2018.4l56.1,59l-11.2-80.5l81-7.1l-69.9-41.5l45-67.8l-76,28.8l-24.9-77.5l-24.9,77.5l-76-28.8
					l45,67.8l-69.9,41.5l81,7.1l-11.2,80.5L2754.7,2018.4z"/>
				<path class="st0" d="M2353,2854.3l56.1,59l-11.2-80.5l81-7.1l-69.9-41.5l45-67.7l-76,28.7l-24.9-77.4l-24.8,77.4l-76-28.7
					l45,67.7l-69.9,41.5l81,7.1l-11.2,80.5L2353,2854.3z"/>
				<path class="st0" d="M2533.8,2303.3l44.2,27.5l-12.4-50.6l39.7-33.6l-51.9-3.8l-19.6-48.2l-19.7,48.2l-51.9,3.8l39.8,33.6
					l-12.5,50.6L2533.8,2303.3z"/>
			</g>
		</g>
	</g>
</g>
</svg>
