<?xml version="1.0" encoding="utf-8"?>
<!-- Generator: Adobe Illustrator 27.8.1, SVG Export Plug-In . SVG Version: 6.00 Build 0)  -->
<svg version="1.1" id="Layer_1" xmlns="http://www.w3.org/2000/svg" xmlns:xlink="http://www.w3.org/1999/xlink" x="0px" y="0px"
	 viewBox="0 0 5935 4280" style="enable-background:new 0 0 5935 4280;" xml:space="preserve">
<style type="text/css">
	.st0{fill:#FFFFFF;}
	.st1{fill:#D80027;}
	.st2{fill:#F0F0F0;}
	.st3{fill-rule:evenodd;clip-rule:evenodd;fill:#003399;}
	.st4{fill:#FFCC00;}
</style>
<g>
	<circle class="st0" cx="4197.2" cy="2206.8" r="1421.8"/>
	<circle class="st1" cx="4197.2" cy="2206.8" r="1339.7"/>
	<path class="st2" d="M4901.4,1972H4432v-469.5h-469.5V1972h-469.5v469.5h469.5V2911H4432v-469.5h469.5V1972z"/>
</g>
<circle class="st0" cx="1737.8" cy="2206.8" r="1421.8"/>
<path class="st3" d="M1737.8,3545.3c739.2,0,1338.6-599.4,1338.6-1338.6S2477,868.2,1737.8,868.2S399.2,1467.6,399.2,2206.8
	S998.5,3545.3,1737.8,3545.3z"/>
<g>
	<path class="st4" d="M1737.8,1179.8l-33.4,102.6h-107.9l87,63.2l-32.7,103.4l87-63.2l86.9,63.2l-32.6-103.4l87-63.2h-107.8
		L1737.8,1179.8z"/>
	<path class="st4" d="M1771.2,3067.1l-33.5-102.6l-33.4,102.6h-107.9l87,63.2l-32.7,103.4l87-63.2l86.9,63.2l-32.7-103.4l87-63.2
		H1771.2z"/>
	<path class="st4" d="M845.3,2278.4l87,62.7l-32.7-103.4l87-63.2H878.8L845.3,2072l-33.5,102.6H704.1l87,63.2l-32.7,103.4
		L845.3,2278.4z"/>
	<path class="st4" d="M1291.3,1299.5l-33.5,102.6h-107.7l87,63.9l-32.7,102.6l86.9-64.1l87,63.9l-32.7-102.6l87.1-63.9H1325
		L1291.3,1299.5z"/>
	<path class="st4" d="M965.1,1626l-33.5,102.6H823.8l87,63.2l-33.5,103.4l87.7-63.2l87,63.2l-33.5-103.4l87.7-63.2H998.5L965.1,1626
		z"/>
	<path class="st4" d="M998.5,2621L965,2518.4L931.6,2621H823.8l87,63.2l-33.5,103.4l87.7-63.2l87,63.2l-33.5-103.4l87.7-63.2H998.5z
		"/>
	<path class="st4" d="M1325,2947.7l-33.7-102.9l-33.3,102.9h-107.9l87,63.9l-32.6,102.3l86.8-63.9l87,63.9l-32.7-102.6l87.2-63.7
		H1325z"/>
	<path class="st4" d="M2771.4,2174.8h-107.8l-33.5-102.6l-33.5,102.6h-108l87,63.2l-32.6,103.2l87-62.7l87,62.7l-32.7-103.4
		L2771.4,2174.8z"/>
	<path class="st4" d="M2183.9,1299.5l-33.5,102.6h-107.8l87,63.9l-32.7,102.6l87-64.1l87,63.9l-32.7-102.6l87-63.9h-107.8
		L2183.9,1299.5z"/>
	<path class="st4" d="M2456.9,1791.8l-33.5,103.4l87-63.2l87.7,63.2l-33.5-103.4l87-63.2h-107.8l-33.5-102.6l-33.5,102.6h-107.8
		L2456.9,1791.8z"/>
	<path class="st4" d="M2543.8,2621l-33.5-102.6l-33.5,102.6h-107.8l87.7,63.2l-33.5,103.4l87-63.2l87.7,63.2l-33.5-103.4l87.1-63.2
		H2543.8z"/>
	<path class="st4" d="M2217.4,2947.7l-33.5-102.6l-33.5,102.6h-107.8l87,63.9l-32.7,102.6l87-63.9l87,63.9l-32.7-102.6l87-63.9
		H2217.4z"/>
</g>
</svg>
