<?xml version="1.0" encoding="utf-8"?>
<!-- Generator: Adobe Illustrator 27.8.1, SVG Export Plug-In . SVG Version: 6.00 Build 0)  -->
<svg version="1.1" id="Layer_1" xmlns="http://www.w3.org/2000/svg" xmlns:xlink="http://www.w3.org/1999/xlink" x="0px" y="0px"
	 viewBox="0 0 5935 4280" style="enable-background:new 0 0 5935 4280;" xml:space="preserve">
<style type="text/css">
	.st0{fill:#FFFFFF;}
	.st1{fill:#F0F0F0;}
	.st2{fill:#D80027;}
	.st3{fill-rule:evenodd;clip-rule:evenodd;fill:#D80027;}
	.st4{fill-rule:evenodd;clip-rule:evenodd;fill:#0052B4;}
</style>
<g>
	<g>
		<circle class="st0" cx="4290.8" cy="2119" r="1530"/>
		<circle class="st1" cx="4290.8" cy="2118.3" r="1441.1"/>
		<circle class="st2" cx="4290.8" cy="2118.3" r="626.5"/>
	</g>
</g>
<g>
	<circle class="st0" cx="1644.1" cy="2119" r="1530"/>
	<g>
		<path class="st1" d="M1644.1,3563.9c798,0,1444.9-647,1444.9-1444.9S2442.1,674.1,1644.1,674.1S199.2,1321.1,199.2,2119
			S846.1,3563.9,1644.1,3563.9z"/>
		<g>
			<path class="st3" d="M2875.5,1364.5H1579.2V987.2h963.2C2674.6,1092.5,2787.4,1220.2,2875.5,1364.5z M3089,2119H1579.9v-377.2
				h1459.3C3072.4,1864.8,3089.1,1991.6,3089,2119z M1644.1,3563.9c326.7,0.8,643.8-109.9,899.1-313.8h-1798
				C1000.3,3453.9,1317.5,3564.6,1644.1,3563.9L1644.1,3563.9z M2877.1,2873.6H411.2c-71.9-117.3-126.5-244.4-162.2-377.3h2790.2
				C3003.6,2629.2,2949,2756.3,2877.1,2873.6L2877.1,2873.6z"/>
			<path class="st4" d="M870,898.9h-1.3v0.9L870,898.9z M870,898.9h130.7l-123.1,88.3l46.6,144.5l-122.8-88.3l-122,88.3l40.1-124.7
				c-107.9,90.3-202,195.8-279.3,313.2h42.6l-77.9,56.4l-35.3,62.1l36.9,114.8l-69.8-50.8l-48.1,112.1l40.1,125.9h152.4L359.8,1830
				l46.6,144.5l-122.8-88.3l-72.2,52.9c-8.1,59.6-12.1,119.7-12.1,179.8h1444.9V674.1C1369.9,673.7,1101.3,751.7,870,898.9z
				 M923.9,1973.8l1.1,0.8h-0.8L923.9,1973.8z M877.5,1830.1l46.3,143.7l-122.6-87.5l-122.8,88.3l46.6-144.5l-122.8-88.3h152.4
				l46.6-144.5l46.6,144.5h152.4L877.5,1830.1z M878.4,1409.5l46.6,144.5l-122.8-88.3L679.3,1554l46.6-144.5l-122.8-88.3h152.4
				l46.6-144.5l46.6,144.5H1001L878.4,1409.5z M1320.6,1886.3l122.8,88.3l-46.6-144.5l123-88.3h-152.4l-46.6-144.5l-46.6,144.5H1122
				l122.8,88.3l-46.6,144.5L1320.6,1886.3z M1396.9,1409.5l46.6,144.5l-122.8-88.3l-122.8,88.3l46.6-144.5l-122.8-88.3H1274
				l46.6-144.5l46.6,144.5h152.4L1396.9,1409.5z M1443.5,1133.3l-46.6-144.5l123-88.3h-152.4L1321,756l-46.6,144.5H1122l122.8,88.3
				l-46.6,144.5l122.8-88.3L1443.5,1133.3z"/>
		</g>
	</g>
</g>
</svg>
