<?xml version="1.0" encoding="utf-8"?>
<!-- Generator: Adobe Illustrator 27.8.1, SVG Export Plug-In . SVG Version: 6.00 Build 0)  -->
<svg version="1.1" id="Layer_1" xmlns="http://www.w3.org/2000/svg" xmlns:xlink="http://www.w3.org/1999/xlink" x="0px" y="0px"
	 viewBox="0 0 5935 4280" style="enable-background:new 0 0 5935 4280;" xml:space="preserve">
<style type="text/css">
	.st0{fill:#FFFFFF;}
	.st1{fill:#F0F0F0;}
	.st2{fill-rule:evenodd;clip-rule:evenodd;fill:#D80027;}
	.st3{fill-rule:evenodd;clip-rule:evenodd;fill:#0052B4;}
	.st4{fill-rule:evenodd;clip-rule:evenodd;fill:#003399;}
	.st5{fill:#FFCC00;}
</style>
<g>
	<circle class="st0" cx="4121.6" cy="2140.3" r="1334.3"/>
	<g>
		<path class="st1" d="M4121.6,3400.3c695.9,0,1260.1-564.2,1260.1-1260.1S4817.5,880.2,4121.6,880.2s-1260.1,564.3-1260.1,1260.1
			S3425.7,3400.3,4121.6,3400.3z"/>
		<g>
			<path class="st2" d="M5195.4,1482.3H4064.9v-329h840C5020.3,1245.1,5118.6,1356.5,5195.4,1482.3z M5381.6,2140.3h-1316v-328.9
				h1272.7C5367.2,1918.6,5381.7,2029.2,5381.6,2140.3z M4121.6,3400.3c284.9,0.7,561.5-95.9,784.1-273.7H3337.6
				C3560.1,3304.5,3836.7,3401,4121.6,3400.3L4121.6,3400.3z M5196.8,2798.4H3046.3c-62.7-102.3-110.4-213.1-141.4-329h2433.3
				C5307.2,2585.3,5259.5,2696.1,5196.8,2798.4L5196.8,2798.4z"/>
			<path class="st3" d="M3446.5,1076.3h-1.1v0.8L3446.5,1076.3z M3446.5,1076.3h113.9l-107.4,77l40.6,126l-107.1-77l-106.4,77
				l35-108.7c-94.1,78.7-176.1,170.8-243.6,273.2h37.1l-67.9,49.2l-30.8,54.1l32.2,100.1l-60.9-44.3l-42,97.8l35,109.8h132.9
				l-105.6,77.8l40.6,126l-107.1-77l-63,46.2c-7,52-10.5,104.4-10.5,156.8h1260.1V880.2C3882.4,879.9,3648.2,947.9,3446.5,1076.3z
				 M3493.4,2013.7l0.9,0.7h-0.7L3493.4,2013.7z M3453,1888.3l40.4,125.3l-106.9-76.3l-107.1,77l40.6-126l-107.1-77h132.9l40.6-126
				l40.6,126h132.9L3453,1888.3z M3453.8,1521.5l40.6,126l-107.1-77l-107.1,77l40.6-126l-107.1-77h132.9l40.6-126l40.6,126h132.9
				L3453.8,1521.5z M3839.5,1937.4l107.1,77l-40.6-126l107.3-77h-132.9l-40.6-126l-40.6,126h-132.9l107.1,77l-40.6,126
				L3839.5,1937.4z M3906,1521.5l40.6,126l-107.1-77l-107.1,77l40.6-126l-107.1-77h132.9l40.6-126l40.6,126h132.9L3906,1521.5z
				 M3946.6,1280.7l-40.6-126l107.3-77h-132.9l-40.6-126l-40.6,126h-132.9l107.1,77l-40.6,126l107.1-77L3946.6,1280.7z"/>
		</g>
	</g>
</g>
<g>
	<circle class="st0" cx="1813.4" cy="2140.3" r="1334.3"/>
	<path class="st4" d="M1813.4,3396.5c693.7,0,1256.2-562.5,1256.2-1256.2S2507.1,884.1,1813.4,884.1S557.2,1446.6,557.2,2140.3
		S1119.7,3396.5,1813.4,3396.5z"/>
	<g>
		<path class="st5" d="M1813.4,1176.5l-31.3,96.3h-101.3l81.7,59.3l-30.7,97l81.7-59.3l81.6,59.3l-30.6-97l81.7-59.3h-101.2
			L1813.4,1176.5z"/>
		<path class="st5" d="M1844.8,2947.7l-31.4-96.3l-31.3,96.3h-101.3l81.7,59.3l-30.7,97l81.7-59.3l81.6,59.3l-30.7-97l81.7-59.3
			H1844.8z"/>
		<path class="st5" d="M976,2207.5l81.7,58.9l-30.7-97l81.7-59.3h-101.2l-31.4-96.3l-31.4,96.3H843.4l81.7,59.3l-30.7,97L976,2207.5
			z"/>
		<path class="st5" d="M1394.5,1288.8l-31.4,96.3H1262l81.7,60l-30.7,96.3l81.6-60.2l81.7,60l-30.7-96.3l81.7-60h-101L1394.5,1288.8
			z"/>
		<path class="st5" d="M1088.3,1595.2l-31.4,96.3H955.7l81.7,59.3l-31.4,97l82.3-59.3l81.7,59.3l-31.4-97l82.3-59.3h-101.2
			L1088.3,1595.2z"/>
		<path class="st5" d="M1119.7,2529l-31.4-96.3l-31.4,96.3H955.7l81.7,59.3l-31.4,97l82.3-59.3l81.7,59.3l-31.4-97l82.3-59.3H1119.7
			z"/>
		<path class="st5" d="M1426.1,2835.6l-31.6-96.5l-31.2,96.5H1262l81.7,60l-30.6,96l81.5-60l81.7,60l-30.7-96.3l81.8-59.8H1426.1z"
			/>
		<path class="st5" d="M2783.5,2110.3h-101.2l-31.4-96.3l-31.4,96.3h-101.3l81.7,59.3l-30.6,96.8l81.7-58.9l81.7,58.9l-30.7-97
			L2783.5,2110.3z"/>
		<path class="st5" d="M2232.2,1288.8l-31.4,96.3h-101.2l81.7,60l-30.7,96.3l81.7-60.2l81.7,60l-30.7-96.3l81.7-60h-101.2
			L2232.2,1288.8z"/>
		<path class="st5" d="M2488.3,1750.8l-31.4,97l81.7-59.3l82.3,59.3l-31.4-97l81.7-59.3H2570l-31.4-96.3l-31.4,96.3H2406
			L2488.3,1750.8z"/>
		<path class="st5" d="M2569.9,2529l-31.4-96.3l-31.4,96.3h-101.2l82.3,59.3l-31.4,97l81.7-59.3l82.3,59.3l-31.4-97l81.7-59.3
			H2569.9z"/>
		<path class="st5" d="M2263.6,2835.6l-31.4-96.3l-31.4,96.3h-101.2l81.7,60l-30.7,96.3l81.7-60l81.7,60l-30.7-96.3l81.7-60H2263.6z
			"/>
	</g>
</g>
</svg>
