<?xml version="1.0" encoding="utf-8"?>
<!-- Generator: Adobe Illustrator 27.8.1, SVG Export Plug-In . SVG Version: 6.00 Build 0)  -->
<svg version="1.1" id="Layer_1" xmlns="http://www.w3.org/2000/svg" xmlns:xlink="http://www.w3.org/1999/xlink" x="0px" y="0px"
	 viewBox="0 0 512 512" style="enable-background:new 0 0 512 512;" xml:space="preserve">
<style type="text/css">
	.st0{fill:#FFFFFF;}
</style>
<g id="Layer_24">
	<path class="st0" d="M496,192c0,4.3-1.6,8.3-4.6,11.4l-96,96c-3,3-7.1,4.7-11.4,4.6c-2.1,0-4.1-0.4-6.1-1.1c-6-2.5-10-8.4-9.9-14.9
		v-48H224c-8.8,0-16-7.2-16-16v-64c0-8.8,7.2-16,16-16h144V96c0-8.8,7.2-16,16.1-15.9c4.2,0,8.3,1.7,11.3,4.7l96,96
		C494.3,183.8,496,187.8,496,192z M288,272H144v-48c0-6.5-3.9-12.3-9.9-14.7c-6-2.5-12.8-1.2-17.4,3.4l-96,96c-3,3-4.7,7.1-4.6,11.4
		c0,4.3,1.6,8.3,4.6,11.4l96,96c3,3,7.1,4.7,11.4,4.6c2.1,0.1,4.2-0.4,6.1-1.3c6-2.5,9.9-8.3,9.9-14.7v-48h144c8.8,0,16-7.2,16-16
		v-64C304,279.2,296.8,272,288,272z"/>
</g>
</svg>
