<?xml version="1.0" encoding="utf-8"?>
<!-- Generator: Adobe Illustrator 27.8.1, SVG Export Plug-In . SVG Version: 6.00 Build 0)  -->
<svg version="1.1" id="Icon" xmlns="http://www.w3.org/2000/svg" xmlns:xlink="http://www.w3.org/1999/xlink" x="0px" y="0px"
	 viewBox="0 0 512 512" style="enable-background:new 0 0 512 512;" xml:space="preserve">
<style type="text/css">
	.st0{fill:#FFFFFF;}
</style>
<path id="Gift_1_" class="st0" d="M202.7,256v213.3h-112c-17.6,0-32-14.4-32-32V254.9c3.4,0.7,7,1.1,10.7,1.1H202.7z M224,256v213.3
	h64V256H224z M442.7,256H309.3v213.3h112c17.6,0,32-14.4,32-32V254.9C449.9,255.6,446.3,256,442.7,256z M474.7,160v42.7
	c0,17.6-14.4,32-32,32H69.3c-17.6,0-32-14.4-32-32V160c0-17.6,14.4-32,32-32h101.4c-6.7-8.9-10.8-20-10.8-32
	c0-29.4,23.9-53.3,53.3-53.3c17.5,0,32.9,8.5,42.7,21.5c9.7-13,25.2-21.5,42.7-21.5c29.4,0,53.3,23.9,53.3,53.3c0,12-4,23.1-10.8,32
	h101.4C460.3,128,474.7,142.4,474.7,160z M266.7,96v32h32c17.6,0,32-14.4,32-32s-14.4-32-32-32C281,64,266.7,78.4,266.7,96z
	 M213.3,128h32V96c0-17.6-14.4-32-32-32s-32,14.4-32,32S195.7,128,213.3,128z"/>
</svg>
