<?xml version="1.0" encoding="utf-8"?>
<!-- Generator: Adobe Illustrator 27.8.1, SVG Export Plug-In . SVG Version: 6.00 Build 0)  -->
<svg version="1.1" id="Layer_1" xmlns="http://www.w3.org/2000/svg" xmlns:xlink="http://www.w3.org/1999/xlink" x="0px" y="0px"
	 viewBox="0 0 512 512" style="enable-background:new 0 0 512 512;" xml:space="preserve">
<style type="text/css">
	.st0{fill:#FFFFFF;}
</style>
<g id="crown">
	<path class="st0" d="M464,221.4l-39.4,173.9c-1.6,7.5-8.3,12.8-16,12.6H102.1c-7.7,0.2-14.4-5.1-16-12.6L48,221.4
		c-1.3-6,0.9-12.2,5.8-16c4.8-3.8,11.4-4.5,17-1.8l93.4,45.3l77.4-137c4.4-7.7,14.1-10.4,21.8-6c2.5,1.4,4.6,3.5,6,6l77.4,137.1
		l94.1-45.6c7.8-4.1,17.5-1.2,21.6,6.6C464.4,213.6,464.9,217.6,464,221.4L464,221.4z"/>
</g>
</svg>
