<?xml version="1.0" encoding="utf-8"?>
<!-- Generator: Adobe Illustrator 27.8.1, SVG Export Plug-In . SVG Version: 6.00 Build 0)  -->
<svg version="1.1" id="Layer_1" xmlns="http://www.w3.org/2000/svg" xmlns:xlink="http://www.w3.org/1999/xlink" x="0px" y="0px"
	 viewBox="0 0 512 512" style="enable-background:new 0 0 512 512;" xml:space="preserve">
<style type="text/css">
	.st0{fill:#09AAEE;}
</style>
<g>
	<path class="st0" d="M256,469.3c-117.6,0-213.3-95.7-213.3-213.3S138.4,42.7,256,42.7S469.3,138.4,469.3,256S373.6,469.3,256,469.3
		z M256,85.3c-94.1,0-170.7,76.6-170.7,170.7S161.9,426.7,256,426.7S426.7,350.1,426.7,256S350.1,85.3,256,85.3z"/>
	<path class="st0" d="M324.4,244.8H280c-4.6,0-8.3-3.7-8.3-8.3V128.7c0-8.5-11.2-11.5-15.5-4.2l-75.8,130.2
		c-3.2,5.5,0.8,12.5,7.2,12.5H232c4.6,0,8.3,3.7,8.3,8.3v107.7c0,8.5,11.2,11.5,15.5,4.2l75.8-130.2
		C334.8,251.7,330.8,244.8,324.4,244.8L324.4,244.8z"/>
</g>
</svg>
