<?xml version="1.0" encoding="utf-8"?>
<!-- Generator: Adobe Illustrator 28.2.0, SVG Export Plug-In . SVG Version: 6.00 Build 0)  -->
<svg version="1.1" id="Layer_2_00000066491104576915925210000008059441808670701736_"
	 xmlns="http://www.w3.org/2000/svg" xmlns:xlink="http://www.w3.org/1999/xlink" x="0px" y="0px" viewBox="0 0 1107.1 196"
	 style="enable-background:new 0 0 1107.1 196;" xml:space="preserve">
<style type="text/css">
	.st0{fill:none;}
	.st1{fill:#FFFFFF;}
</style>
<g>
	<path class="st0" d="M924.8,61.8c-10.2,0-18.9,3.6-25.9,10.7s-10.6,15.8-10.6,26c0,10.2,3.5,18.9,10.6,26
		c7.1,7.1,15.7,10.7,25.9,10.7s18.8-3.6,25.8-10.7c7-7.1,10.5-15.8,10.5-26c0-10.2-3.5-18.9-10.5-26S935.1,61.8,924.8,61.8z"/>
	<path class="st0" d="M391.8,75.9c-7.2,0-13.2,2.4-18,7.3c-4.8,4.8-7.2,10.9-7.2,18.3c0,7.3,2.4,13.4,7.2,18.3
		c4.8,4.8,10.8,7.3,18,7.3s13.2-2.4,18-7.3c4.8-4.8,7.2-10.9,7.2-18.3c0-7.3-2.4-13.4-7.2-18.3C405,78.3,399,75.9,391.8,75.9z"/>
	<path class="st0" d="M617.7,80.1c-4.2-3.3-9.1-4.9-14.8-4.9c-6.4,0-11.7,1.8-16,5.3c-4.2,3.5-7,8.3-8.1,14.4h46.9
		C624.6,88.3,621.9,83.4,617.7,80.1z"/>
	<path class="st1" d="M777.2,128.4c-0.1,0-0.2,0-0.2,0c-4.2,0.1-7.6,3.5-7.5,7.8c0,2.1,0.8,4.1,2.3,5.5c3,3,8,3,11,0l0-0.1
		c1.4-1.4,2.2-3.3,2.2-5.3C785,131.9,781.5,128.4,777.2,128.4z"/>
	<path class="st1" d="M175.6,0H29.9C13.4,0,0,13.4,0,29.9v136.2C0,182.6,13.4,196,29.9,196h145.7c16.5,0,29.9-13.4,29.9-29.9V29.9
		C205.4,13.4,192.1,0,175.6,0z M93.1,151.8H22.5v-17.2l34.8-36.2c7-7.2,10.5-13.4,10.5-18.4c0-0.5,0-1,0-1.5
		c-0.5-5.7-5.5-9.9-11.1-9.4c-6.9,0-12,3.8-15.3,11.3l-20-11.7c2.8-7,7.8-12.9,14.2-16.9l0,0c6.2-3.8,13.4-5.8,20.8-5.8
		c9.1-0.2,18,3,24.8,9c6.9,6,10.3,14,10.3,24.1c0,11-5.4,21.8-16.2,32.6l-17.3,17.4h34.9V151.8z M143.2,135.1H99.8v-21.9L132.8,48
		h25.5l-33.1,65.2h17.9V135.1z M171,151.8h-9.6v9h-4.6v-9h-9.6v-16.6v-21.9V91h9.6v-9h4.6v9h9.6V151.8z M181.3,135.1h-6.8v-21.9h6.8
		V135.1z"/>
	<path class="st1" d="M311.6,59.5L311.6,59.5c-10.9,0-19.1,4.2-24.4,12.6c-4.9-8.4-12.5-12.6-22.7-12.6c-10.1,0-17.7,3.9-22.8,11.6
		v-9.6h-17.2v79.7h17.2V96.6c0-6.9,1.6-12.2,4.9-15.7s7.5-5.3,12.8-5.3c4.8,0,8.5,1.5,11.1,4.6c2.6,3,3.9,7.3,3.9,12.8v48.3h17.2
		V96.6c0-7,1.6-12.3,4.7-15.8s7.4-5.3,12.7-5.3c4.8,0,8.6,1.5,11.3,4.5c2.8,3,4.2,7.3,4.2,12.8v48.3h17.2V91.9
		c0-9.9-2.8-17.8-8.3-23.6C327.9,62.4,320.6,59.5,311.6,59.5z"/>
	<path class="st1" d="M417,61.6v11.3c-6.5-8.9-15.8-13.4-27.9-13.4c-11,0-20.3,4-28.1,12.1c-7.8,8.1-11.6,18.1-11.6,29.8
		c0,11.7,3.9,21.6,11.6,29.7c7.8,8.1,17.1,12.2,28.1,12.2c12.1,0,21.4-4.5,27.9-13.6v11.5h17.2V61.6L417,61.6L417,61.6z
		 M409.8,119.7c-4.8,4.8-10.8,7.3-18,7.3s-13.2-2.4-18-7.3c-4.8-4.8-7.2-10.9-7.2-18.3c0-7.3,2.4-13.4,7.2-18.3
		c4.8-4.8,10.8-7.3,18-7.3s13.2,2.4,18,7.3c4.8,4.8,7.2,10.9,7.2,18.3C417,108.8,414.6,114.9,409.8,119.7z"/>
	<path class="st1" d="M465.2,75L465.2,75L465.2,75V61.6h-17.2v79.7h17.2v-40.2c0-8.2,2.4-14.1,7.3-17.6s10.6-5.1,17.2-4.7V60.1
		C477.7,60.1,469.5,65.1,465.2,75z"/>
	<polygon class="st1" points="565.3,61.6 544.2,61.6 513.3,97 513.3,29.7 496.1,29.7 496.1,141.3 513.3,141.3 513.3,104.5 
		546,141.3 566.6,141.3 530.2,100.6 	"/>
	<path class="st1" d="M603.1,59.5c-12.3,0-22.4,4-30.3,12c-7.9,8-11.8,17.8-11.8,29.9s4,22.1,12,30.1c8,7.9,18.5,11.9,31.4,11.9
		c15.4,0,27.1-5.8,34.9-17.4l-14.2-8.3c-4.6,6.6-11.4,9.9-20.6,9.9c-6.6,0-12.2-1.6-16.8-4.9c-4.6-3.2-7.5-7.9-8.8-14h0h0h63.5
		c0.4-3,0.6-5.4,0.6-7.2c0-11.7-3.7-21.6-11.2-29.8S614.8,59.5,603.1,59.5z M578.9,94.7L578.9,94.7L578.9,94.7
		c1.2-6.1,3.9-10.8,8.1-14.4c4.2-3.5,9.6-5.3,16-5.3c5.6,0,10.5,1.6,14.8,4.9c4.2,3.3,6.9,8.2,8,14.7H578.9z"/>
	<path class="st1" d="M674,61.6V39.2l-17.2,5.1v17.2h-14.7v16.6h14.7v38.3c0,10.4,2.9,17.6,8.6,21.5c5.7,3.9,15.2,5,28.4,3.4v-15.5
		c-4.4,0.2-8,0.2-10.9,0.1c-2.9-0.2-5.1-1-6.6-2.4s-2.2-3.8-2.2-7.1V78.1h19.8V61.6H674z"/>
	<polygon class="st1" points="693.8,78.2 693.8,78.1 693.8,78.1 	"/>
	<path class="st1" d="M743.4,97.8c-4.3-1.3-8.6-2.6-12.7-3.9c-4.1-1.3-7.7-2.7-10.6-4.2c-3-1.5-4.4-3.6-4.4-6.2l0,0
		c0-2.7,1.1-4.8,3.3-6.2c2.2-1.4,5-2.1,8.3-2.1c7.2,0,12.2,3,15,9.1l14.5-8.1c-2.8-5.2-6.7-9.3-11.9-12.2s-11-4.4-17.6-4.4
		c-8.3,0-15.2,2.2-20.8,6.7c-5.6,4.5-8.4,10.4-8.4,17.7c0,5.3,1.5,9.7,4.4,13.2c2.9,3.5,6.5,5.8,10.9,7.2c4.3,1.3,8.6,2.6,12.7,3.9
		c4.1,1.3,7.6,2.7,10.6,4.3c2.9,1.6,4.4,3.7,4.4,6.2c0,6-4.5,8.9-13.6,8.9s-14.9-3.8-17.7-11.5l-14.8,8.6
		c2.6,5.8,6.6,10.4,12.3,13.7c5.6,3.3,12.4,4.9,20.2,4.9c8.9,0,16.3-2.2,22.2-6.5c5.9-4.4,8.8-10.4,8.8-18c0-5.5-1.4-10-4.3-13.6
		C751.3,101.6,747.7,99.1,743.4,97.8z"/>
	<path class="st1" d="M854.5,130.4c-5.5,3.2-11.6,4.8-18.5,4.8c-10.3,0-19-3.5-26-10.6c-7-7.1-10.5-15.8-10.5-26.1
		c0-10.3,3.5-19,10.5-26.1c7-7.1,15.7-10.6,26-10.6c6.9,0,13.1,1.6,18.5,4.8c5.4,3.2,9.4,7.6,12,13.1l7.1-4.1
		c-3.1-6.8-8-12.1-14.8-16.1c-6.8-4-14.4-5.9-22.7-5.9c-13,0-23.8,4.3-32.4,12.9c-8.6,8.6-12.9,19.3-12.9,32s4.3,23.4,12.9,32
		s19.4,12.9,32.4,12.9c8.4,0,16-2,22.8-5.9c6.8-4,12-9.3,15.4-15.9l-7.2-4.3C864.1,122.8,859.9,127.1,854.5,130.4z"/>
	<path class="st1" d="M924.8,53.6c-12.6,0-23.3,4.3-32.1,13s-13.2,19.3-13.2,32s4.4,23.3,13.2,31.9c8.8,8.7,19.5,13,32.1,13
		c12.5,0,23.2-4.3,32-13c8.8-8.7,13.2-19.3,13.2-31.9s-4.4-23.3-13.2-32C948,57.9,937.5,53.6,924.8,53.6z M950.7,124.5
		c-7,7.1-15.6,10.7-25.8,10.7s-18.9-3.6-25.9-10.7c-7.1-7.1-10.6-15.8-10.6-26c0-10.2,3.5-18.9,10.6-26s15.7-10.7,25.9-10.7
		s18.8,3.6,25.8,10.7s10.5,15.8,10.5,26C961.2,108.7,957.7,117.4,950.7,124.5z"/>
	<path class="st1" d="M1098.5,62.3c-5.8-5.9-13.3-8.8-22.7-8.8l0,0c-6,0-11.5,1.5-16.6,4.4s-9.2,7.3-12.1,13.2
		c-2.2-5.6-5.6-10-10.3-13c-4.7-3-10.2-4.6-16.5-4.6c-12.5,0-21.8,5.6-27.7,16.7V55.4h-8.6v86.1h8.6V93.5c0-10.4,2.6-18.3,7.7-23.7
		c5.1-5.3,11.5-8,19-8c6.8,0,12.2,2.2,16.1,6.5s5.9,10.6,5.9,18.6v54.6h8.6V93.5c0-10.6,2.4-18.5,7.2-23.8c4.8-5.3,11-7.9,18.7-7.9
		c6.9,0,12.4,2.2,16.6,6.5c4.2,4.4,6.3,10.6,6.3,18.6v54.6h8.6V87C1107.1,76.4,1104.2,68.2,1098.5,62.3z"/>
</g>
</svg>
