<?xml version="1.0" encoding="utf-8"?>
<!-- Generator: Adobe Illustrator 27.8.1, SVG Export Plug-In . SVG Version: 6.00 Build 0)  -->
<svg version="1.1"
	 id="svg3409" xmlns:dc="http://purl.org/dc/elements/1.1/" xmlns:svg="http://www.w3.org/2000/svg" xmlns:sodipodi="http://sodipodi.sourceforge.net/DTD/sodipodi-0.dtd" xmlns:rdf="http://www.w3.org/1999/02/22-rdf-syntax-ns#" xmlns:cc="http://creativecommons.org/ns#" xmlns:inkscape="http://www.inkscape.org/namespaces/inkscape"
	 xmlns="http://www.w3.org/2000/svg" xmlns:xlink="http://www.w3.org/1999/xlink" x="0px" y="0px" viewBox="0 0 2146.2 776"
	 style="enable-background:new 0 0 2146.2 776;" xml:space="preserve">
<style type="text/css">
	.st0{fill:#FF5A00;}
	.st1{fill:#EB001B;}
	.st2{fill:#F79E1B;}
</style>
<path id="XMLID_1775_" inkscape:connector-curvature="0" d="M986,495.5v-70.9c0-27.1-16.5-44.9-44.9-44.9
	c-14.2,0-29.6,4.7-40.2,20.1c-8.3-12.9-20.1-20.1-37.9-20.1c-11.8,0-23.7,3.6-33,16.5V382h-24.8v113.4H830v-62.6
	c0-20.1,10.6-29.6,27.1-29.6s24.8,10.6,24.8,29.6v62.6h24.8v-62.6c0-20.1,11.8-29.6,27.1-29.6c16.5,0,24.8,10.6,24.8,29.6v62.6
	L986,495.5L986,495.5z M1353.6,382h-40.2v-34.3h-24.8V382h-22.4v22.4h22.4v52c0,26,10.6,41.3,39,41.3c10.6,0,22.4-3.6,30.7-8.3
	l-7.2-21.3c-7.2,4.7-15.4,5.9-21.3,5.9c-11.8,0-16.5-7.2-16.5-18.9v-50.8h40.2V382H1353.6z M1564,379.5c-14.2,0-23.7,7.2-29.6,16.5
	v-14.2h-24.8v113.4h24.8v-63.9c0-18.9,8.3-29.6,23.7-29.6c4.7,0,10.6,1.2,15.4,2.3l7.2-23.7C1575.7,379.5,1568.7,379.5,1564,379.5
	L1564,379.5z M1246.1,391.4c-11.8-8.3-28.4-11.8-46.1-11.8c-28.4,0-47.2,14.2-47.2,36.6c0,18.9,14.2,29.6,39,33l11.8,1.2
	c12.9,2.3,20.1,5.9,20.1,11.8c0,8.3-9.5,14.2-26,14.2s-29.6-5.9-37.9-11.8l-11.8,18.9c12.9,9.5,30.7,14.2,48.5,14.2
	c33,0,52-15.4,52-36.6c0-20.1-15.4-30.7-39-34.3l-11.8-1.2c-10.6-1.2-18.9-3.6-18.9-10.6c0-8.3,8.3-12.9,21.3-12.9
	c14.2,0,28.4,5.9,35.5,9.5L1246.1,391.4L1246.1,391.4z M1905.5,379.5c-14.2,0-23.7,7.2-29.6,16.5v-14.2h-24.8v113.4h24.8v-63.9
	c0-18.9,8.3-29.6,23.7-29.6c4.7,0,10.6,1.2,15.4,2.3l7.2-23.4C1917.3,379.5,1910.3,379.5,1905.5,379.5L1905.5,379.5z M1588.8,438.8
	c0,34.3,23.7,59.1,60.3,59.1c16.5,0,28.4-3.6,40.2-12.9l-11.8-20.1c-9.5,7.2-18.9,10.6-29.6,10.6c-20.1,0-34.3-14.2-34.3-36.6
	c0-21.3,14.2-35.5,34.3-36.6c10.6,0,20.1,3.6,29.6,10.6l11.8-20.1c-11.8-9.5-23.7-12.9-40.2-12.9
	C1612.5,379.5,1588.8,404.5,1588.8,438.8L1588.8,438.8L1588.8,438.8z M1818,438.8V382h-24.8v14.2c-8.3-10.6-20.1-16.5-35.5-16.5
	c-31.9,0-56.7,24.8-56.7,59.1s24.8,59.1,56.7,59.1c16.5,0,28.4-5.9,35.5-16.5v14.2h24.8V438.8L1818,438.8z M1727,438.8
	c0-20.1,12.9-36.6,34.3-36.6c20.1,0,34.3,15.4,34.3,36.6c0,20.1-14.2,36.6-34.3,36.6C1740.1,474.1,1727,458.7,1727,438.8L1727,438.8
	z M1430.5,379.5c-33,0-56.7,23.7-56.7,59.1c0,35.5,23.7,59.1,58,59.1c16.5,0,33-4.7,46.1-15.4l-11.8-17.8
	c-9.5,7.2-21.3,11.8-33,11.8c-15.4,0-30.7-7.2-34.3-27.1h83.8c0-3.6,0-5.9,0-9.5C1483.6,403.2,1462.3,379.5,1430.5,379.5
	L1430.5,379.5L1430.5,379.5z M1430.5,400.9c15.4,0,26,9.5,28.4,27.1h-59.1C1402.1,412.7,1412.7,400.9,1430.5,400.9L1430.5,400.9z
	 M2046.2,438.8V337.1h-24.8v59.1c-8.3-10.6-20.1-16.5-35.5-16.5c-31.9,0-56.7,24.8-56.7,59.1s24.8,59.1,56.7,59.1
	c16.5,0,28.4-5.9,35.5-16.5v14.2h24.8V438.8L2046.2,438.8z M1955.2,438.8c0-20.1,12.9-36.6,34.3-36.6c20.1,0,34.3,15.4,34.3,36.6
	c0,20.1-14.2,36.6-34.3,36.6C1968.1,474.1,1955.2,458.7,1955.2,438.8L1955.2,438.8z M1125.5,438.8V382h-24.8v14.2
	c-8.3-10.6-20.1-16.5-35.5-16.5c-31.9,0-56.7,24.8-56.7,59.1s24.8,59.1,56.7,59.1c16.5,0,28.4-5.9,35.5-16.5v14.2h24.8V438.8
	L1125.5,438.8z M1033.4,438.8c0-20.1,12.9-36.6,34.3-36.6c20.1,0,34.3,15.4,34.3,36.6c0,20.1-14.2,36.6-34.3,36.6
	C1046.3,474.1,1033.4,458.7,1033.4,438.8z"/>
<g>
	<rect id="rect19" x="331.5" y="260.3" class="st0" width="175" height="314.5"/>
	<path id="XMLID_330_" inkscape:connector-curvature="0" class="st1" d="M343.2,417.5c0-63.9,30-120.6,76.1-157.2
		c-33.9-26.7-76.7-42.8-123.4-42.8c-110.6,0-200,89.5-200,200s89.5,200,200,200c46.7,0,89.5-16.1,123.4-42.8
		C373.1,538.6,343.2,481.4,343.2,417.5z"/>
	<path id="path22" inkscape:connector-curvature="0" class="st2" d="M742.7,417.5c0,110.6-89.5,200-200,200
		c-46.7,0-89.5-16.1-123.4-42.8c46.7-36.7,76.1-93.3,76.1-157.2s-30-120.6-76.1-157.2c33.9-26.7,76.6-42.8,123.3-42.8
		C653.2,217.5,742.7,307.5,742.7,417.5z"/>
</g>
</svg>
