<?xml version="1.0" encoding="UTF-8"?>
<svg id="Layer_2" data-name="Layer 2" xmlns="http://www.w3.org/2000/svg" viewBox="0 0 255.93 191.97">
  <defs>
    <style>
      .cls-1 {
        stroke-width: 0px;
      }
    </style>
  </defs>
  <g id="Layer_1-2" data-name="Layer 1">
    <g>
      <path class="cls-1" d="m127.77,111.91c-36.85,0-73.7.01-110.55,0-9.33,0-15.14-4.16-16.72-11.77-2.45-11.82,4.28-20.05,16.58-20.06,38.22-.04,76.45-.01,114.67-.01,35.48,0,70.95,0,106.43-.01,3.53,0,6.99.21,10.17,1.95,5.94,3.26,8.74,10.42,7.11,18.19-1.37,6.53-6.58,11.08-13.4,11.6-1.74.13-3.49.12-5.24.12-36.35,0-72.7,0-109.05,0Z"/>
      <path class="cls-1" d="m80.13,191.94c-21.11,0-42.22.03-63.32-.01-11.88-.02-18.65-8.38-16.33-20.03,1.33-6.65,6.21-10.93,13.63-11.84,1.48-.18,2.99-.16,4.49-.16,40.97,0,81.93,0,122.9-.02,2.76,0,5.51.09,8.15.94,7.23,2.31,11.32,9.4,10.14,17.5-1.21,8.34-6.77,13.49-15.2,13.57-14.74.14-29.48.05-44.21.05-6.74,0-13.49,0-20.23,0Z"/>
      <path class="cls-1" d="m176.14.02c20.98,0,41.97-.03,62.95.01,11.94.02,18.69,8.3,16.39,19.97-1.32,6.7-6.13,10.94-13.58,11.89-1.48.19-2.99.18-4.49.18-40.97,0-81.93,0-122.9.02-2.76,0-5.51-.1-8.15-.92-7.22-2.27-11.37-9.42-10.21-17.47C97.36,5.34,102.93.16,111.32.08c14.36-.14,28.73-.05,43.09-.05,7.24,0,14.49,0,21.73,0Z"/>
    </g>
  </g>
</svg>