<?xml version="1.0" encoding="utf-8"?>
<!-- Generator: Adobe Illustrator 27.8.1, SVG Export Plug-In . SVG Version: 6.00 Build 0)  -->
<svg version="1.1" id="Bahan_copy_2" xmlns="http://www.w3.org/2000/svg" xmlns:xlink="http://www.w3.org/1999/xlink" x="0px"
	 y="0px" viewBox="0 0 64 64" style="enable-background:new 0 0 64 64;" xml:space="preserve">
<style type="text/css">
	.st0{fill:#190787;}
</style>
<g>
	<path class="st0" d="M15.1,27.4h-1.7v-3.4c0-0.6-0.4-1-1-1s-1,0.4-1,1v3.4H9.7c-1.1,0-2,0.9-2,2v24.2c0,1.1,0.9,2,2,2c0,0,0,0,0,0
		h1.7V59c0,0.6,0.5,1,1,1c0.5,0,1-0.4,1-1v-3.4h1.7c1.1,0,2-0.9,2-2c0,0,0,0,0,0V29.4C17,28.3,16.2,27.4,15.1,27.4z"/>
	<path class="st0" d="M28.1,15h-1.7v-3.4c0-0.6-0.4-1-1-1s-1,0.4-1,1V15h-1.7c-1.1,0-2,0.9-2,2v24.2c0,1.1,0.9,2,2,2c0,0,0,0,0,0
		h1.7v3.4c0,0.6,0.5,1,1,1c0.5,0,1-0.4,1-1v-3.4h1.7c1.1,0,2-0.9,2-2c0,0,0,0,0,0V17C30.1,15.9,29.2,15,28.1,15
		C28.1,15,28.1,15,28.1,15z"/>
	<path class="st0" d="M41.2,22h-1.7v-3.4c0-0.6-0.4-1-1-1s-1,0.4-1,1V22h-1.7c-1.1,0-2,0.9-2,2c0,0,0,0,0,0v24.2c0,1.1,0.9,2,2,2
		c0,0,0,0,0,0h1.7v3.4c0,0.6,0.5,1,1,1c0.5,0,1-0.4,1-1v-3.4h1.7c1.1,0,2-0.9,2-2V24C43.2,22.9,42.3,22,41.2,22z"/>
	<path class="st0" d="M54.3,8.4h-1.7V5c0-0.6-0.4-1-1-1s-1,0.4-1,1v3.4H49c-1.1,0-2,0.9-2,2c0,0,0,0,0,0v24.2c0,1.1,0.9,2,2,2h1.7
		v3.4c0,0.6,0.5,1,1,1c0.5,0,1-0.4,1-1v-3.4h1.7c1.1,0,2-0.9,2-2V10.4C56.3,9.3,55.4,8.4,54.3,8.4C54.3,8.4,54.3,8.4,54.3,8.4z"/>
</g>
</svg>
