<?xml version="1.0" encoding="utf-8"?>
<!-- Generator: Adobe Illustrator 27.8.1, SVG Export Plug-In . SVG Version: 6.00 Build 0)  -->
<svg version="1.1" id="Capa_1" xmlns="http://www.w3.org/2000/svg" xmlns:xlink="http://www.w3.org/1999/xlink" x="0px" y="0px"
	 viewBox="0 0 512 512" style="enable-background:new 0 0 512 512;" xml:space="preserve">
<style type="text/css">
	.st0{fill:#190787;}
</style>
<g>
	<g>
		<g>
			<path d="M-105.8,58.7C-105.8,58.7-105.8,58.7-105.8,58.7C-105.7,58.7-105.7,58.7-105.8,58.7C-105.7,58.7-105.7,58.7-105.8,58.7z"
				/>
			<path d="M-105.7,58.7c0,0,0.1-0.1,0.1-0.1C-105.6,58.5-105.6,58.6-105.7,58.7z"/>
			<path d="M-105.6,58.5C-105.5,58.4-105.5,58.4-105.6,58.5L-105.6,58.5z"/>
		</g>
	</g>
</g>
<path class="st0" d="M407.4,321.8h-28.5c-9.4,10.6-20.1,19.8-31.8,27.5c-26.2,17.5-57.4,27.5-91.1,27.5s-65-10.1-91.1-27.5
	c-11.7-7.7-22.4-16.9-31.8-27.5h-28.5c-22.7,0-41.3,18.6-41.3,41.3v55.1c0,22.7,18.6,41.3,41.3,41.3h302.9
	c22.7,0,41.3-18.6,41.3-41.3v-55.1C448.8,340.4,430.2,321.8,407.4,321.8z M366.1,418.2H145.9c-7.6,0-13.8-6.2-13.8-13.8
	c0-7.6,6.2-13.8,13.8-13.8h220.3c7.6,0,13.8,6.2,13.8,13.8C379.9,412,373.7,418.2,366.1,418.2z M256,74
	c-75.9,0-137.7,61.8-137.7,137.7c0,45,21.8,85.1,55.2,110.1c23,17.3,51.5,27.5,82.5,27.5s59.5-10.2,82.5-27.5
	c33.5-25.1,55.2-65.1,55.2-110.1C393.7,135.8,331.9,74,256,74z M249.1,197.9h12.9c19,0,34.4,15.4,34.4,34.4
	c0,16.8-11.4,30.6-26.7,34.1v14c0,7.6-6.2,13.8-13.8,13.8c-7.6,0-13.8-6.2-13.8-13.8v-13.2h-13.8c-7.6,0-13.8-6.1-13.8-13.8
	c0-7.6,6.2-13.8,13.8-13.8h33.6c3.9,0,6.9-3,6.9-6.9c0-4.4-3-7.4-6.9-7.4h-12.9c-19,0-34.4-15.4-34.4-34.4
	c0-16.7,11.8-30.6,27.5-33.7v-14.5c0-7.6,6.2-13.8,13.8-13.8c7.6,0,13.8,6.2,13.8,13.8v13.8h12.9c7.6,0,13.8,6.2,13.8,13.8
	s-6.2,13.8-13.8,13.8h-33.6c-3.9,0-6.9,3-6.9,6.9S245.3,197.9,249.1,197.9z"/>
</svg>
