<?xml version="1.0" encoding="utf-8"?>
<!-- Generator: Adobe Illustrator 26.0.0, SVG Export Plug-In . SVG Version: 6.00 Build 0)  -->
<svg version="1.1" id="Capa_1" xmlns="http://www.w3.org/2000/svg" xmlns:xlink="http://www.w3.org/1999/xlink" x="0px" y="0px"
	 viewBox="0 0 263.3 263.3" style="enable-background:new 0 0 263.3 263.3;" xml:space="preserve">
<style type="text/css">
	.st0{fill:#09AAEE;}
</style>
<g>
	<path class="st0" d="M193.9,8.6c-7.4-3.8-16.4-0.8-20.2,6.6L62.2,234.6c-3.8,7.4-0.8,16.4,6.6,20.2c2.2,1.1,4.5,1.6,6.8,1.6
		c5.5,0,10.7-3,13.4-8.2L200.5,28.7C204.2,21.3,201.3,12.3,193.9,8.6z"/>
	<path class="st0" d="M113.8,80.8c0-31.4-25.5-56.9-56.9-56.9C25.5,23.9,0,49.4,0,80.8c0,31.4,25.5,56.9,56.9,56.9
		C88.3,137.7,113.8,112.2,113.8,80.8z M56.9,107.7C42.1,107.7,30,95.6,30,80.8C30,66,42.1,53.9,56.9,53.9
		c14.8,0,26.9,12.1,26.9,26.9C83.8,95.6,71.7,107.7,56.9,107.7z"/>
	<path class="st0" d="M206.4,125.6c-31.4,0-56.9,25.5-56.9,56.9s25.5,56.9,56.9,56.9c31.4,0,56.9-25.5,56.9-56.9
		S237.8,125.6,206.4,125.6z M206.4,209.4c-14.8,0-26.9-12.1-26.9-26.9s12.1-26.9,26.9-26.9c14.8,0,26.9,12.1,26.9,26.9
		C233.3,197.3,221.2,209.4,206.4,209.4z"/>
</g>
</svg>
