<svg id="Layer_1" height="512" viewBox="0 0 64 64" width="512" xmlns="http://www.w3.org/2000/svg"><g><path d="m16.508 28.796 13.259 8.323.471.296c1.036.652 2.485.652 3.524 0l.471-.296 13.258-8.322 3.762-2.362 2.866-1.799c.833-.97 1.311-2.176 1.311-3.448 0-1.843-.985-3.561-2.636-4.597l-17.376-10.907c-2.044-1.282-4.791-1.283-6.836 0l-17.377 10.907c-1.65 1.036-2.636 2.754-2.636 4.597 0 1.271.478 2.477 1.31 3.446l2.868 1.8zm16.501.848c-.59.367-1.429.367-2.019 0-1.681-1.046-3.363-2.093-5.044-3.139-1.922-1.196-3.845-2.393-5.767-3.589-2.183-1.359-.173-4.818 2.019-3.454 3.267 2.033 6.534 4.067 9.802 6.1 3.267-2.033 6.534-4.067 9.802-6.1 2.194-1.365 4.2 2.097 2.019 3.454-1.862 1.159-3.723 2.317-5.585 3.476-1.742 1.084-3.484 2.168-5.227 3.252z"/><path d="m35.889 51.9c-2.263 1.42-5.527 1.412-7.777-.001l-15.39-9.659-3.39-2.128c-.49.814-.763 1.738-.763 2.698 0 1.843.985 3.562 2.636 4.599 0 0 17.375 10.905 17.376 10.906 2.014 1.264 4.786 1.287 6.836.001l17.377-10.908c1.65-1.036 2.636-2.755 2.636-4.598 0-.96-.273-1.883-.763-2.697l-3.39 2.128c.001 0-15.374 9.65-15.388 9.659z"/><path d="m16.281 39.751 13.958 8.761c1.038.653 2.486.65 3.523.001l13.958-8.762 3.763-2.362 1.689-1.06c1.418-1.05 2.259-2.634 2.259-4.328 0-1.042-.324-2.04-.897-2.901l-3.389 2.127-9.387 5.893-5.87 3.685c-1.163.729-2.526 1.094-3.889 1.094s-2.725-.364-3.888-1.094l-5.87-3.685-9.388-5.893-3.389-2.127c-.571.861-.895 1.858-.895 2.9 0 1.693.84 3.275 2.255 4.325l1.695 1.064z"/></g></svg>