<?xml version="1.0" encoding="utf-8"?>
<!-- Generator: Adobe Illustrator 26.0.3, SVG Export Plug-In . SVG Version: 6.00 Build 0)  -->
<svg version="1.0" id="katman_1" xmlns="http://www.w3.org/2000/svg" xmlns:xlink="http://www.w3.org/1999/xlink" x="0px" y="0px"
	 viewBox="0 0 600 450" style="enable-background:new 0 0 600 450;" xml:space="preserve">
<style type="text/css">
	.st0{fill:#FFFFFF;}
	.st1{fill:#645FA8;}
	.st2{fill:#C8244A;}
	.st3{fill:#1287C9;}
	.st4{fill:#ED6E25;}
	.st5{fill:#2CA94D;}
	.st6{fill:#FBB819;}
</style>
<g>
	<g>
		<g>
			<path class="st0" d="M109.5,197.9c1.6-2.7,4.1-5.2,7.2-6.8c5-2.3,11.5-1.1,15.8,2.3c3.8,3.4,6.1,8.3,5,13.7
				c1.1,0,1.8-0.7,2.9-1.1c6.1-1.8,12.4,0,16.4,5.2c2.9,3.8,3.8,9.5,1.8,13.7c-0.7,2.3-2.3,4.1-4.1,6.1l0.5,0.5
				c5.6,0.5,11.3,4.5,13.1,10.1c1.8,5.6,0.5,11.3-3.8,15.3c-3.4,3.4-7.4,4.5-11.9,4.1H67.7c-7.2,0-12.4-2.9-14.9-9
				c-2.3-5.2-1.1-11.9,2.9-16c2.7-2.7,6.1-3.8,9.7-4.5c-4.1-3.8-6.1-9-5-14.6c0.5-4.1,4.1-9,8.6-10.6c3.8-1.6,9-1.1,12.6,0.7l0,0
				c-1.1-6.1,1.6-11.5,6.8-14.9c4.5-2.9,11.5-2.9,16,0.5C106.6,193.9,108.4,196.1,109.5,197.9z"/>
			<g>
				<path class="st1" d="M133.4,200.2c-0.7-1.6-1.8-2.9-3.2-4.1c-3.4-2.9-9-3.4-13.1-1.1c-3.8,1.8-6.1,6.1-6.1,10.1l0,0h5
					c0.5,0.5,0.7,0.5,1.1,0.7c-2,1.6-5.9,2.9-5,6.1l5.2,33.3l0,0l14.6-32.9C134.3,208.5,135.4,204,133.4,200.2z"/>
				<path class="st2" d="M102.1,244.8l6.1-38.1c0.5-2.7-0.5-5.2-1.6-7.4c-1.1-2.5-3.4-4.1-5.6-5.2c-4.1-1.8-9.5-0.7-12.4,2.3
					c-2.9,2.9-4.5,7.4-2.9,11.9l14.9,33.3L102.1,244.8L102.1,244.8z"/>
				<path class="st3" d="M155.2,215.1c1.8,3.4,1.6,8.6-0.7,11.5c-1.6,2.3-3.8,3.4-5.6,5l-31.1,21.4l0,0l0.5-1.1l16.4-36.9
					c2.7-4.5,7.2-6.8,11.9-6.1C150.1,209.7,153.4,211.9,155.2,215.1z"/>
				<path class="st4" d="M67.4,229l34.5,23.6h0.5l-17.1-37.8c-2.9-5-9-7.2-14.6-5.2c-3.4,1.6-6.1,4.5-6.8,7.9
					C62,221.8,63.6,226.3,67.4,229z"/>
				<path class="st5" d="M162.7,253.8c2.7-2.9,2.9-8.3,1.6-11.5c-1.1-2.7-3.4-5-6.1-6.1c-3.4-1.6-7.9-1.1-10.8,0.7l-30.6,21.2h36.7
					C157,258.1,160,256.7,162.7,253.8z"/>
				<path class="st6" d="M102.8,258.1l-30.6-21.6c-2.9-1.8-7.4-2.3-10.8-0.7c-2.7,1.1-5,3.4-6.1,6.1c-1.8,3.8-1.1,8.6,1.6,11.5
					c2.3,2.9,5.6,4.5,9.5,4.5L102.8,258.1z"/>
			</g>
		</g>
	</g>
	<g>
		<g>
			<path d="M240.1,217.3c-1.6-6.8-6.8-8.6-13.1-9c-19.8-1.8-23.2,13.1-23.2,19.4c0,10.8,2.9,19.4,22.5,19.4c3.8,0,13.5-3.8,13.5-9.7
				h28.1c-1.1,18-31.1,22.1-44.1,22.1c-27,0-50.2-5-49.1-31.8c0.7-19.1,18.7-32.4,54.5-31.5c19.8,0.5,39,6.8,39,20.9h-28.1V217.3z"
				/>
			<path d="M520.7,217.3c-1.6-6.8-6.8-8.6-13.1-9c-19.8-1.8-23.2,13.1-23.2,19.1c0,10.8,2.9,19.4,22.5,19.4c3.8,0,13.5-3.8,13.5-9.7
				h28.1c-1.1,18-31.1,22.1-44.1,22.1c-27,0-50.2-5-49.1-31.8c0.7-19.1,18.7-32.4,54.5-31.5c19.8,0.5,39.2,6.8,39.2,20.9h-28.4
				L520.7,217.3L520.7,217.3z"/>
			<path d="M273.5,197.5h36.3l31.1,43.5h0.5v-43.5h23.2v60.1h-34.7l-32.4-43.5h-0.5v43.5h-23.4C273.5,257.8,273.5,197.5,273.5,197.5
				z"/>
			<path d="M371.4,197.5h44.1c21.4,0,33.6,6.1,33.6,14.9c0,5.2-5.2,11.9-16.9,13.7l0,0c13.7,0.7,19.1,9.7,19.1,14.9
				c0,10.8-11.9,16.4-35.8,16.4h-44.1V197.5z M397.3,221.1h7.4c11.3,0,17.1-0.7,17.1-5.6c0-5-5-6.8-14.9-6.8h-9.5v12.4H397.3z
				 M397.3,245.5h7.4c13.5,0,18.7-1.6,18.7-6.1c0-5-6.3-6.8-16.4-6.8h-9.5v12.6h-0.2V245.5z"/>
		</g>
	</g>
</g>
</svg>
