<?xml version="1.0" encoding="utf-8"?>
<!-- Generator: Adobe Illustrator 26.0.0, SVG Export Plug-In . SVG Version: 6.00 Build 0)  -->
<svg version="1.1" id="Layer_1" xmlns="http://www.w3.org/2000/svg" xmlns:xlink="http://www.w3.org/1999/xlink" x="0px" y="0px"
	 viewBox="0 0 512 512" style="enable-background:new 0 0 512 512;" xml:space="preserve">
<style type="text/css">
	.st0{fill:#09AAEE;}
</style>
<g id="Line">
	<path class="st0" d="M256,490.7c-7.8,0-15.6-1.5-22.8-4.5C117.8,440.9,42.1,329.4,42.7,205.4v-86.8c0-30,20.8-56,50.1-62.5
		l149.3-33.3c9.1-1.9,18.6-1.9,27.7,0l149.3,33.3c29.3,6.5,50.1,32.5,50.1,62.5v86.8c0.5,124-75.2,235.5-190.5,281
		C271.5,489.2,263.8,490.6,256,490.7L256,490.7z M256,64h-4.7L102,97.3c-9.9,2.2-16.9,11.2-16.6,21.3v86.8
		C84.9,311.9,149.9,407.7,249,446.7c4.5,1.7,9.5,1.7,14.1,0c99.1-39,164.1-134.8,163.6-241.3v-86.8c0.2-10.2-6.7-19.1-16.6-21.3
		L260.7,64H256z M239.6,315.1c-5.6,0-10.9-2.1-14.9-6L176,261.3c-8.4-8.3-8.4-21.8-0.1-30.2c0,0,0.1-0.1,0.1-0.1
		c8.3-8.3,21.8-8.3,30.1,0l33.7,33.1l87.7-85.3c8.4-8.3,22-8.2,30.3,0.2c8.3,8.4,8.2,22-0.2,30.3L254.9,310.2
		C250.7,313.8,245.1,315.5,239.6,315.1L239.6,315.1z"/>
</g>
</svg>
