<svg xmlns="http://www.w3.org/2000/svg" viewBox="0 0 460 460"><defs><style>.cls-1{fill:#222;}.cls-2{fill:#f0f0f1;}</style></defs><g id="Layer_2" data-name="Layer 2"><g id="Layer_1-2" data-name="Layer 1"><path class="cls-1" d="M460,366.6C460,418,418,460,366.6,460H93.4C42,460,0,418,0,366.6V93.4C0,42,42,0,93.4,0H366.6C418,0,460,42,460,93.4Z"/><path class="cls-2" d="M143.79,112.62A31.34,31.34,0,1,0,175.11,144,31.39,31.39,0,0,0,143.79,112.62Z"/><path class="cls-2" d="M167.31,187.88h-47a4,4,0,0,0-4,4.05v151.4a4,4,0,0,0,4,4.05h47a4.06,4.06,0,0,0,4.06-4.05V191.93A4.05,4.05,0,0,0,167.31,187.88Z"/><path class="cls-2" d="M287.55,186.09c-17.21,0-32.34,5.25-41.57,13.79v-7.95a4,4,0,0,0-4-4.05H196.81a4,4,0,0,0-4.05,4.05v151.4a4,4,0,0,0,4.05,4.05h47a4.05,4.05,0,0,0,4-4.05V268.42c0-21.49,4-34.81,23.68-34.81,19.44,0,20.9,14.31,20.9,36.1v73.62a4,4,0,0,0,4.05,4.05h47a4.06,4.06,0,0,0,4.06-4.05V260.28C347.54,225.74,340.73,186.09,287.55,186.09Z"/></g></g></svg>