<svg xmlns="http://www.w3.org/2000/svg" viewBox="0 0 460 460"><defs><style>.cls-1{fill:#222;}.cls-2{fill:#f0f0f1;}</style></defs><g id="Layer_2" data-name="Layer 2"><g id="Layer_1-2" data-name="Layer 1"><path class="cls-1" d="M460,366.6C460,418,418,460,366.6,460H93.4C42,460,0,418,0,366.6V93.4C0,42,42,0,93.4,0H366.6C418,0,460,42,460,93.4Z"/><path id="f" class="cls-2" d="M252,371.87V242.45H295.4L301.91,192H252V159.8c0-14.61,4-24.56,25-24.56h26.7V90.11a361.52,361.52,0,0,0-38.91-2c-38.51,0-64.87,23.51-64.87,66.67V192H156.33v50.45h43.56V371.87Z"/></g></g></svg>