<svg xmlns="http://www.w3.org/2000/svg" viewBox="0 0 460 460"><defs><style>.cls-1{fill:#222;}.cls-2{fill:#f0f0f1;}</style></defs><g id="Layer_2" data-name="Layer 2"><g id="Layer_1-2" data-name="Layer 1"><path class="cls-1" d="M460,366.6C460,418,418,460,366.6,460H93.4C42,460,0,418,0,366.6V93.4C0,42,42,0,93.4,0H366.6C418,0,460,42,460,93.4Z"/><path class="cls-2" d="M368.38,172.69c-.65-14.79-3-24.95-6.47-33.76A71.33,71.33,0,0,0,321.2,98.22c-8.86-3.42-19-5.81-33.75-6.46s-19.62-.87-57.4-.87-42.5.16-57.34.81-24.94,3-33.75,6.47a67.9,67.9,0,0,0-24.68,16.09,68.58,68.58,0,0,0-16,24.62c-3.42,8.86-5.81,19-6.47,33.75s-.87,19.62-.87,57.4.17,42.5.82,57.34,3,24.95,6.47,33.75a71.17,71.17,0,0,0,40.71,40.71c8.86,3.43,19,5.82,33.75,6.47s19.57.81,57.34.81,42.5-.16,57.34-.81,25-3,33.75-6.47a71.13,71.13,0,0,0,40.71-40.71c3.43-8.86,5.82-19,6.47-33.75s.82-19.57.82-57.34S369,187.52,368.38,172.69ZM343.32,286.28c-.59,13.59-2.88,20.93-4.78,25.82a46.11,46.11,0,0,1-26.41,26.41c-4.9,1.91-12.29,4.19-25.82,4.79-14.68.65-19.08.81-56.2.81s-41.58-.16-56.2-.81c-13.59-.6-20.93-2.88-25.82-4.79a42.74,42.74,0,0,1-16-10.38,43.18,43.18,0,0,1-10.38-16c-1.9-4.89-4.18-12.28-4.78-25.81-.65-14.68-.82-19.08-.82-56.2s.17-41.58.82-56.2c.6-13.59,2.88-20.93,4.78-25.82a42.28,42.28,0,0,1,10.44-16,43.18,43.18,0,0,1,16-10.38c4.89-1.9,12.28-4.19,25.81-4.78,14.68-.66,19.08-.82,56.2-.82s41.58.16,56.2.82c13.59.59,20.93,2.88,25.82,4.78a45.85,45.85,0,0,1,26.36,26.36c1.9,4.89,4.19,12.28,4.78,25.82.66,14.67.82,19.07.82,56.2S344,271.61,343.32,286.28Z"/><path class="cls-2" d="M230.05,158.55A71.48,71.48,0,1,0,301.53,230,71.5,71.5,0,0,0,230.05,158.55Zm0,117.84A46.36,46.36,0,1,1,276.42,230,46.37,46.37,0,0,1,230.05,276.39Z"/><path class="cls-2" d="M321,155.73A16.69,16.69,0,1,1,304.35,139,16.68,16.68,0,0,1,321,155.73Z"/></g></g></svg>