<?xml version="1.0" encoding="UTF-8"?>
<svg id="Layer_2" data-name="Layer 2" xmlns="http://www.w3.org/2000/svg" viewBox="0 0 512 512">
  <defs>
    <style>
      .cls-1 {
        fill: #2c2b7c;
        stroke-width: 0px;
      }
    </style>
  </defs>
  <g id="Capa_1" data-name="Capa 1">
    <g>
      <path class="cls-1" d="m402,0C341.35,0,292,49.35,292,110s48.84,110,110,110,110-49.57,110-110S462.65,0,402,0Zm0,200c-21.8,0-42.32-7.66-58.62-21.71,7.72-9.36,18.64-15.64,30.59-17.61,4.32,11.28,15.25,19.32,28.03,19.32s23.71-8.04,28.03-19.32c11.96,1.97,22.87,8.25,30.59,17.61-16.29,14.05-36.82,21.71-58.62,21.71h0Zm-14.97-64.19c-9.41-5.48-15.03-15.12-15.03-25.81v-20c0-16.54,13.46-30,30-30s30,13.46,30,30v20c0,10.68-5.62,20.33-15.03,25.81-3.08,1.79-4.97,5.08-4.97,8.64v5.55c0,5.51-4.49,10-10,10s-10-4.49-10-10v-5.55c0-3.56-1.89-6.85-4.97-8.64Zm87.31,27.73c-9.16-10.28-21.18-17.65-34.43-21.18,7.67-8.93,12.1-20.38,12.1-32.35v-20c0-27.57-22.43-50-50-50s-50,22.43-50,50v20c0,11.97,4.43,23.43,12.1,32.35-13.25,3.53-25.27,10.9-34.43,21.18-11.45-15.41-17.66-34.03-17.66-53.54,0-49.63,40.37-90,90-90s90,40.37,90,90c0,19.51-6.21,38.12-17.67,53.54Z"/>
      <path class="cls-1" d="m110,0C49.35,0,0,49.35,0,110s48.84,110,110,110c19.84,0,39.16-5.35,56-15.32v138.9l-25.36-25.36c-11.72-11.72-30.7-11.73-42.42,0-11.64,11.63-11.71,30.39-.29,42.12l15.35,17.9c3.58,4.17,9.89,4.69,14.1,1.08,4.19-3.6,4.67-9.91,1.08-14.1,0,0-15.92-18.54-16.1-18.72-3.9-3.9-3.9-10.24,0-14.14,3.91-3.91,10.23-3.91,14.14,0l42.43,42.43c2.86,2.86,7.16,3.71,10.9,2.17,3.74-1.55,6.17-5.19,6.17-9.24v-191.72c0-5.62,4.58-10,10-10s10,4.56,10,10v120c0,5.52,4.48,10,10,10s10-4.48,10-10v-40c0-5.51,4.49-10,10-10s10,4.49,10,10v40c0,5.52,4.48,10,10,10s10-4.48,10-10v-20c0-5.51,4.49-10,10-10s10,4.49,10,10v40c0,5.52,4.48,10,10,10s10-4.48,10-10v-20c0-5.51,4.49-10,10-10s10,4.49,10,10v86.86c0,18.7-7.28,36.28-20.5,49.5l-16.57,16.57c-1.88,1.88-2.93,4.42-2.93,7.07v36h-80v-32.69c0-2.39-.85-4.7-2.41-6.51l-16.56-19.3c-3.6-4.19-9.91-4.67-14.1-1.08-4.19,3.6-4.67,9.91-1.08,14.1l14.15,16.49v38.99c0,5.52,4.48,10,10,10h100c5.52,0,10-4.48,10-10v-41.86l13.64-13.64c17-17,26.36-39.6,26.36-63.64v-86.86c0-16.54-13.46-30-30-30-3.9,0-7.63.76-11.06,2.12-3.47-12.73-15.13-22.12-28.94-22.12-3.9,0-7.63.76-11.06,2.12-3.47-12.73-15.13-22.12-28.94-22.12-3.51,0-6.87.61-10,1.72v-51.72c0-10.46-5.47-19.85-13.82-25.24,5.13-12.89,7.82-26.79,7.82-40.76C220,49.35,170.65,0,110,0h0Zm56,176v4.45c-15.88,12.63-35.6,19.55-56,19.55-21.8,0-42.32-7.66-58.62-21.71,7.72-9.36,18.64-15.64,30.59-17.61,4.32,11.28,15.25,19.32,28.03,19.32s23.73-8.05,28.04-19.35c10.64,1.72,20.43,6.85,27.98,14.69,0,.22-.02.44-.02.65h0Zm-70.97-40.19c-9.41-5.48-15.03-15.12-15.03-25.81v-20c0-16.54,13.46-30,30-30s30,13.46,30,30v20c0,10.68-5.62,20.33-15.03,25.81-3.08,1.79-4.97,5.08-4.97,8.64v5.55c0,5.51-4.49,10-10,10s-10-4.49-10-10v-5.55c0-3.56-1.89-6.85-4.97-8.64Zm97.39,10.41c-7.15.87-13.63,4.28-18.39,9.38-7.69-6.24-16.58-10.75-26.11-13.26,7.66-8.93,12.08-20.37,12.08-32.34v-20c0-27.57-22.43-50-50-50s-50,22.43-50,50v20c0,11.97,4.43,23.43,12.1,32.35-13.25,3.53-25.27,10.9-34.43,21.18-11.45-15.41-17.66-34.03-17.66-53.54,0-49.63,40.37-90,90-90s90,40.37,90,90c0,12.68-2.55,24.84-7.58,36.22h0Z"/>
      <path class="cls-1" d="m510,282c3.31-4.42,2.42-10.69-2-14-4.42-3.32-10.69-2.42-14,2l-8.43,11.24c-12.3-9.78-27.64-15.24-43.57-15.24-38.6,0-70,31.4-70,70,0,13.16,3.59,25.76,10.43,36.78l-9.37,18.75c-1.55,3.1-1.38,6.78.44,9.73s5.04,4.74,8.51,4.74h60c38.6,0,70-31.4,70-70,0-14.36-4.42-28.27-12.54-39.95l10.54-14.05Zm-68,104h-43.82l4.76-9.53c1.7-3.39,1.33-7.45-.95-10.48-6.54-8.7-9.99-19.07-9.99-29.99,0-27.57,22.43-50,50-50,11.57,0,22.72,4.02,31.57,11.24l-32.65,43.54-11.85-11.85c-3.9-3.9-10.24-3.9-14.14,0s-3.9,10.24,0,14.14l20,20c1.88,1.88,4.43,2.93,7.07,2.93,3.14,0,6.11-1.48,8-4l36.53-48.71c3.56,6.98,5.47,14.74,5.47,22.71,0,27.57-22.43,50-50,50h0Z"/>
      <circle class="cls-1" cx="150" cy="406" r="10"/>
    </g>
  </g>
</svg>