<?xml version="1.0" encoding="UTF-8"?>
<svg id="Layer_2" data-name="Layer 2" xmlns="http://www.w3.org/2000/svg" viewBox="0 0 1198.81 1198.81">
  <defs>
    <style>
      .cls-1 {
        fill: #2c2b7c;
        stroke-width: 0px;
      }
    </style>
  </defs>
  <g id="Layer_1-2" data-name="Layer 1">
    <g>
      <path class="cls-1" d="m718.65,601.86c-4.36,4.36-6.86,10.37-6.86,16.55s2.51,12.2,6.86,16.55c4.36,4.36,10.4,6.86,16.55,6.86s12.2-2.51,16.55-6.86c4.36-4.35,6.86-10.39,6.86-16.55s-2.51-12.2-6.86-16.55c-4.36-4.38-10.4-6.86-16.55-6.86s-12.2,2.48-16.55,6.86Z"/>
      <path class="cls-1" d="m995.22,419.56c4.36-4.35,6.86-10.39,6.86-16.55s-2.51-12.22-6.86-16.55c-4.36-4.36-10.4-6.86-16.55-6.86s-12.2,2.5-16.55,6.86c-4.38,4.36-6.86,10.37-6.86,16.55s2.48,12.2,6.86,16.55c4.36,4.36,10.37,6.86,16.55,6.86s12.2-2.51,16.55-6.86Z"/>
      <path class="cls-1" d="m252.87,398.04v-28.1h25.41c10.02,6.9,20.31,13.44,30.78,19.67v190.8c0,33.86,27.55,61.4,61.4,61.4h259.37c12.93,0,23.41-10.48,23.41-23.41s-10.48-23.41-23.41-23.41h-173.01c-9.1-51.3-49.64-91.84-100.94-100.94v-79.43c45.84,21.74,94.63,37.35,144.46,46.02l84.58,14.71c4.66.81,9.31,1.2,13.91,1.2,6.45,0,12.79-.79,18.92-2.27,24.6,40.36,69.06,66.1,117.45,66.1,75.75,0,137.39-61.63,137.39-137.39s-61.63-137.39-137.39-137.39c-42.85,0-82.52,19.77-108.29,52.82l-109.34-60.46c-8.02-4.44-13-12.88-13-22.05,0-13.89,11.3-25.19,25.19-25.19h483.81c9.1,51.3,49.64,91.84,100.94,100.94v182.39c-51.3,9.1-91.84,49.64-100.94,100.94h-173.01c-12.93,0-23.41,10.48-23.41,23.41s10.48,23.41,23.41,23.41h259.37c33.86,0,61.4-27.55,61.4-61.4V225.31c0-33.86-27.55-61.41-61.4-61.41h-307.59l-116.93-90.16c-30.34-23.39-68.14-36.28-106.45-36.28H252.87v-14.05c0-12.93-10.48-23.41-23.41-23.41H23.41C10.48,0,0,10.48,0,23.41v374.63c0,12.93,10.48,23.41,23.41,23.41h206.05c12.93,0,23.41-10.48,23.41-23.41h0Zm155.95,196.95h-38.35c-8.04,0-14.58-6.54-14.58-14.58v-38.35c25.42,7.44,45.49,27.5,52.93,52.93Zm326.38-282.55c49.93,0,90.56,40.62,90.56,90.55s-40.62,90.56-90.56,90.56c-31.64,0-60.72-16.69-77.01-42.92,7.05-7.59,12.75-16.61,16.55-26.81,9.76-26.18,4.89-54.99-10.92-76.51,16.99-21.8,43.12-34.88,71.38-34.88h0Zm364.74,282.55h-38.35c7.44-25.42,27.5-45.49,52.93-52.93v38.35c0,8.04-6.54,14.58-14.58,14.58Zm14.58-369.69v38.35c-25.42-7.44-45.49-27.5-52.93-52.93h38.35c8.04,0,14.58,6.54,14.58,14.58ZM568.98,84.29c28.02,0,55.66,9.42,77.85,26.53l68.84,53.08h-185.9c-39.71,0-72.02,32.31-72.02,72.02,0,26.19,14.24,50.34,37.16,63.02l120.46,66.62c14.71,8.14,21.37,26.15,15.5,41.9-5.76,15.42-21.7,24.57-37.92,21.75l-84.58-14.71c-74.86-13.02-147.2-43.13-209.18-87.08-3.96-2.81-8.69-4.32-13.54-4.32h-32.78V84.29h316.11ZM206.05,374.63H46.83V46.83h159.22v327.8Z"/>
      <path class="cls-1" d="m1175.39,777.35h-206.05c-11.83,0-21.58,8.78-23.16,20.16-30.36-14.86-63.64-22.63-98.04-22.63-66.12,0-128.47,29-171.07,79.57l-23.56,27.97h-136.94c-44.87,0-81.38,36.51-81.38,81.37,0,7.24.96,14.26,2.75,20.95-21.58-8.93-41.4-22.12-58.41-39.14l-113.82-113.85c-31.64-31.65-83.25-31.78-115.04-.28-15.52,15.38-24.1,35.88-24.15,57.73-.05,21.85,8.43,42.39,23.88,57.84l127.2,127.2c62.2,62.2,144.89,96.45,232.85,96.45h435.47v4.68c0,12.93,10.48,23.41,23.41,23.41h206.05c12.93,0,23.41-10.48,23.41-23.41v-374.63c0-12.93-10.48-23.41-23.41-23.41h0Zm-664.93,346.53c-75.45,0-146.39-29.38-199.74-82.73l-127.2-127.2c-6.58-6.58-10.19-15.32-10.16-24.62.02-9.3,3.67-18.03,10.28-24.57,13.53-13.41,35.5-13.36,48.97.12l113.82,113.85c42.84,42.85,99.81,66.45,160.4,66.45h264.71c12.93,0,23.41-10.48,23.41-23.41s-10.48-23.41-23.41-23.41h-254.96c-19.05,0-34.55-15.5-34.55-34.55s15.5-34.55,34.55-34.55h147.83c6.9,0,13.46-3.05,17.91-8.33l30.58-36.3c33.68-39.98,82.98-62.91,135.25-62.91,35.08,0,68.73,10.18,97.78,29.5v272.67h-435.47Zm641.51,28.1h-159.22v-327.8h159.22v327.8Z"/>
    </g>
  </g>
</svg>