<?xml version="1.0" encoding="UTF-8"?>
<svg id="Layer_2" data-name="Layer 2" xmlns="http://www.w3.org/2000/svg" viewBox="0 0 469.33 362.67">
  <defs>
    <style>
      .cls-1 {
        fill: #2c2b7c;
        stroke-width: 0px;
      }
    </style>
  </defs>
  <g id="Capa_1" data-name="Capa 1">
    <path class="cls-1" d="m438.83,133.01l-80.21-88.15c-15.87-15.87-41.73-15.89-57.75.13-5.08,5.08-8.53,11.16-10.33,17.64-15.96-12.22-38.98-11.01-53.68,3.69-5.06,5.08-8.51,11.16-10.35,17.62-15.96-12.18-38.98-10.99-53.65,3.71-4.97,4.97-8.38,10.9-10.24,17.22l-37.8-37.8c-15.87-15.87-41.73-15.89-57.75.13-15.89,15.87-15.89,41.73,0,57.62l145.24,145.24-86.14,13.52c-23.28,3.33-40.83,23.55-40.83,47.08,0,17.64,14.36,32,32,32h201.15c31.34,0,60.8-12.2,82.96-34.37l33.56-33.56c22.14-22.12,34.33-51.56,34.33-82.86,0-29.23-10.84-57.24-30.51-78.87Zm-18.9,146.65l-33.56,33.56c-18.13,18.13-42.24,28.12-67.88,28.12H117.33c-5.89,0-10.67-4.78-10.67-10.67,0-12.97,9.68-24.13,22.68-25.98l106.99-16.81c3.97-.62,7.23-3.41,8.49-7.23,1.24-3.8.24-8-2.6-10.84L82.15,109.74c-7.57-7.57-7.57-19.9.11-27.6,3.8-3.78,8.77-5.68,13.74-5.68s9.94,1.9,13.74,5.7l106.73,106.73c4.16,4.16,10.92,4.16,15.08,0,2.07-2.09,3.12-4.82,3.12-7.55s-1.04-5.46-3.14-7.55l-43.58-43.58c-7.57-7.57-7.57-19.88.13-27.58s19.9-7.55,27.46,0l43.61,43.6c4.16,4.16,10.92,4.16,15.08,0,2.07-2.09,3.11-4.82,3.11-7.55s-1.05-5.46-3.14-7.55l-22.25-22.25c-7.57-7.57-7.57-19.88.13-27.58,7.55-7.55,19.9-7.55,27.46,0l22.36,22.36s.02.02.02.02l.02.02.02.02.02.02h.02s.02.02.02.02c4.18,3.97,10.8,3.88,14.87-.21,4.16-4.16,4.16-10.92,0-15.08l-.92-.92c-3.67-3.67-5.7-8.56-5.7-13.74s2.01-10.05,5.8-13.85c7.6-7.55,19.88-7.53,27.11-.36l79.87,87.79c16.06,17.69,24.94,40.6,24.94,64.51,0,25.6-9.96,49.66-28.08,67.78Z"/>
    <path class="cls-1" d="m183.38,56.6C167.85,22.23,133.55,0,96,0,43.07,0,0,43.07,0,96c0,37.55,22.23,71.85,56.6,87.4,1.43.64,2.92.94,4.4.94,4.05,0,7.94-2.35,9.73-6.27,2.41-5.38.02-11.69-5.33-14.12-26.75-12.1-44.05-38.76-44.05-67.95,0-41.17,33.49-74.67,74.67-74.67,29.18,0,55.85,17.3,67.95,44.05,2.41,5.38,8.75,7.79,14.1,5.33,5.38-2.43,7.76-8.75,5.33-14.12Z"/>
  </g>
</svg>