<?xml version="1.0" encoding="utf-8"?>
<!-- Generator: Adobe Illustrator 27.8.1, SVG Export Plug-In . SVG Version: 6.00 Build 0)  -->
<svg version="1.1"
	 id="Layer_1" xmlns:dc="http://purl.org/dc/elements/1.1/" xmlns:rdf="http://www.w3.org/1999/02/22-rdf-syntax-ns#" xmlns:cc="http://creativecommons.org/ns#"
	 xmlns="http://www.w3.org/2000/svg" xmlns:xlink="http://www.w3.org/1999/xlink" x="0px" y="0px" viewBox="0 0 278.7 360.4"
	 style="enable-background:new 0 0 278.7 360.4;" xml:space="preserve">
<style type="text/css">
	.st0{fill:#E82127;}
</style>
<g>
	<path class="st0" d="M139.3,306.5L174.8,107c33.8,0,44.5,3.7,46,18.8c0,0,22.7-8.5,34.1-25.6c-44.6-20.7-89.5-21.6-89.5-21.6
		l-26.2,31.9l0.1,0l-26.2-31.9c0,0-44.9,0.9-89.5,21.6c11.4,17.2,34.1,25.6,34.1,25.6c1.5-15.1,12.2-18.8,45.8-18.9L139.3,306.5"/>
	<path class="st0" d="M139.3,69.3c36.1-0.3,77.4,5.6,119.7,24c5.7-10.2,7.1-14.7,7.1-14.7C219.9,60.4,176.6,54.1,139.3,54
		c-37.3,0.2-80.6,6.4-126.8,24.7c0,0,2.1,5.5,7.1,14.7C61.9,74.9,103.2,69.1,139.3,69.3L139.3,69.3"/>
</g>
</svg>
