<?xml version="1.0" encoding="UTF-8"?>
<svg id="Layer_2" data-name="Layer 2" xmlns="http://www.w3.org/2000/svg" viewBox="0 0 222 228">
  <defs>
    <style>
      .cls-1 {
        fill: #00af73;
      }

      .cls-1, .cls-2, .cls-3, .cls-4, .cls-5, .cls-6, .cls-7 {
        stroke-width: 0px;
      }

      .cls-2 {
        fill: #fefefe;
      }

      .cls-3 {
        fill: #bee4d3;
      }

      .cls-4 {
        fill: #00b177;
      }

      .cls-5 {
        fill: #00b176;
      }

      .cls-6 {
        fill: #14b37b;
      }

      .cls-7 {
        fill: #11b37a;
      }
    </style>
  </defs>
  <g id="Layer_1-2" data-name="Layer 1">
    <g>
      <path class="cls-6" d="m.12,225.79C.12,151.94.16,78.09,0,4.24,0,.41,1.07,0,4.44,0c71.04.1,142.08.1,213.12,0,3.37,0,4.45.41,4.44,4.24-.16,73.85-.12,147.7-.12,221.55-1.74,1.39-3.81.98-5.77.98-70.08.02-140.15.02-210.23,0-1.96,0-4.03.41-5.77-.98Z"/>
      <path class="cls-1" d="m.12,225.79h221.77v1c-1.55.9-3.26.48-4.89.48-70.67.02-141.33.02-212,0-1.63,0-3.33.42-4.89-.48v-1Z"/>
      <path class="cls-3" d="m.12,226.79h221.77c.15,1.96-1.36.95-1.99.95-72.6.05-145.19.05-217.79,0-.63,0-2.15,1.02-1.99-.95Z"/>
      <path class="cls-2" d="m110.73,153c-10.09,7.22-20.18,14.45-30.28,21.66-5.81,4.15-11.63,8.28-17.98,12.81-.45-4.57,1.5-7.78,2.53-11.08,4.31-13.74,8.8-27.42,13.56-41.01,1.24-3.54.25-5.17-2.56-7.15-14.75-10.36-29.35-20.94-44.15-31.54,1.83-1.59,3.56-.98,5.13-.98,16.28-.05,32.57,0,48.85-.07,1.76,0,3.65.64,5.28-.63h0c4.4-9.63,6.76-19.96,10.24-29.91,2.94-8.42,5.64-16.92,8.8-26.46,6.47,19.23,12.59,37.4,18.71,55.58.33.04.49.16.48.36-.02.24-.07.36-.15.36,1.38,1.45,3.14.7,4.7.7,16.48.07,32.95.04,49.43.04,1.61,0,3.23,0,6.27,0-5.15,3.96-9.06,7.25-13.26,10.14-18.1,12.45-35.77,25.49-53.43,38.56-1.96,1.45-4.35,2.31-6.02,4.21-.87,1.97-2.13,3.6-4.08,4.62-.7.14-1.39.13-2.05-.19Z"/>
      <path class="cls-2" d="m110.73,153l1.25-1.04c2.25-.9,4.39-2.4,7-1.22,7.22-1.8,14.47-3.51,21.65-5.45,2.86-.77,4.41-.56,5.42,2.76,3.56,11.72,7.46,23.35,11.26,35,.41,1.24,1.37,2.67,0,3.58-1.38.91-2.23-.63-3.28-1.4-13.31-9.61-26.69-19.13-40.01-28.74-1.27-.92-2.2-2.31-3.29-3.48Z"/>
      <path class="cls-5" d="m129.17,94.93c-.29-.16-.39-.39-.32-.71,12.58-.09,25.16-.19,37.74-.25,7.11-.04,14.22,0,21.33.96h-58.74Z"/>
      <path class="cls-4" d="m91.1,95.01h-58.09c0-.33,0-.66,0-.99,18.43,0,36.87-.01,55.3.04.93,0,1.85.62,2.78.95,0,0,0,0,0,0Z"/>
      <path class="cls-7" d="m118.97,150.74c-2.34.36-4.49,1.84-7,1.22,1.31-1.59,3.14-2.43,4.89-3.39.7.72,1.41,1.44,2.11,2.17Z"/>
    </g>
  </g>
</svg>