<?xml version="1.0" encoding="UTF-8"?>
<svg id="Layer_2" data-name="Layer 2" xmlns="http://www.w3.org/2000/svg" xmlns:xlink="http://www.w3.org/1999/xlink" viewBox="0 0 48.7 56">
  <defs>
    <style>
      .cls-1 {
        fill: url(#linear-gradient);
      }

      .cls-1, .cls-2, .cls-3, .cls-4 {
        stroke-width: 0px;
      }

      .cls-2 {
        fill: url(#linear-gradient-2);
      }

      .cls-3 {
        fill: url(#linear-gradient-3);
      }

      .cls-4 {
        fill: url(#linear-gradient-4);
      }
    </style>
    <linearGradient id="linear-gradient" x1="4.7" y1="19" x2="4.7" y2="56" gradientUnits="userSpaceOnUse">
      <stop offset="0" stop-color="#e9ce7a"/>
      <stop offset="1" stop-color="#dbab4b"/>
    </linearGradient>
    <linearGradient id="linear-gradient-2" x1="17.7" y1="6.6" x2="17.7" y2="43.6" gradientUnits="userSpaceOnUse">
      <stop offset="0" stop-color="#e9ce7a"/>
      <stop offset="1" stop-color="#dcc179"/>
    </linearGradient>
    <linearGradient id="linear-gradient-3" x1="30.8" y1="13.6" x2="30.8" y2="50.6" xlink:href="#linear-gradient-2"/>
    <linearGradient id="linear-gradient-4" x1="44" y1="0" x2="44" y2="37" xlink:href="#linear-gradient-2"/>
  </defs>
  <g id="Bahan_copy_2" data-name="Bahan copy 2">
    <g>
      <path class="cls-1" d="m7.4,23.4h-1.7v-3.4c0-.6-.4-1-1-1s-1,.4-1,1v3.4h-1.7c-1.1,0-2,.9-2,2v24.2c0,1.1.9,2,2,2h1.7v3.4c0,.6.5,1,1,1s1-.4,1-1v-3.4h1.7c1.1,0,2-.9,2-2v-24.2c-.1-1.1-.9-2-2-2Z"/>
      <path class="cls-2" d="m20.4,11h-1.7v-3.4c0-.6-.4-1-1-1s-1,.4-1,1v3.4h-1.7c-1.1,0-2,.9-2,2v24.2c0,1.1.9,2,2,2h1.7v3.4c0,.6.5,1,1,1s1-.4,1-1v-3.4h1.7c1.1,0,2-.9,2-2V13c0-1.1-.9-2-2-2Z"/>
      <path class="cls-3" d="m33.5,18h-1.7v-3.4c0-.6-.4-1-1-1s-1,.4-1,1v3.4h-1.7c-1.1,0-2,.9-2,2v24.2c0,1.1.9,2,2,2h1.7v3.4c0,.6.5,1,1,1s1-.4,1-1v-3.4h1.7c1.1,0,2-.9,2-2v-24.2c0-1.1-.9-2-2-2Z"/>
      <path class="cls-4" d="m46.6,4.4h-1.7V1c0-.6-.4-1-1-1s-1,.4-1,1v3.4h-1.6c-1.1,0-2,.9-2,2v24.2c0,1.1.9,2,2,2h1.7v3.4c0,.6.5,1,1,1s1-.4,1-1v-3.4h1.7c1.1,0,2-.9,2-2V6.4c-.1-1.1-1-2-2.1-2Z"/>
    </g>
  </g>
</svg>