<?xml version="1.0" encoding="UTF-8"?>
<svg id="Layer_2" data-name="Layer 2" xmlns="http://www.w3.org/2000/svg" xmlns:xlink="http://www.w3.org/1999/xlink" viewBox="0 0 385.5 385.5">
  <defs>
    <style>
      .cls-1 {
        fill: url(#linear-gradient);
        stroke-width: 0px;
      }
    </style>
    <linearGradient id="linear-gradient" x1="192.75" y1="0" x2="192.75" y2="385.5" gradientUnits="userSpaceOnUse">
      <stop offset="0" stop-color="#e9ce7a"/>
      <stop offset="1" stop-color="#dbab4b"/>
    </linearGradient>
  </defs>
  <g id="Capa_1" data-name="Capa 1">
    <path class="cls-1" d="m344.1,247.8h-28.5c-9.4,10.6-20.1,19.8-31.8,27.5-26.2,17.5-57.4,27.5-91.1,27.5s-65-10.1-91.1-27.5c-11.7-7.7-22.4-16.9-31.8-27.5h-28.5c-22.7,0-41.3,18.6-41.3,41.3v55.1c0,22.7,18.6,41.3,41.3,41.3h302.9c22.7,0,41.3-18.6,41.3-41.3v-55.1c0-22.7-18.6-41.3-41.4-41.3Zm-41.3,96.4H82.6c-7.6,0-13.8-6.2-13.8-13.8s6.2-13.8,13.8-13.8h220.3c7.6,0,13.8,6.2,13.8,13.8-.1,7.6-6.3,13.8-13.9,13.8ZM192.7,0C116.8,0,55,61.8,55,137.7c0,45,21.8,85.1,55.2,110.1,23,17.3,51.5,27.5,82.5,27.5s59.5-10.2,82.5-27.5c33.5-25.1,55.2-65.1,55.2-110.1C330.4,61.8,268.6,0,192.7,0Zm-6.9,123.9h12.9c19,0,34.4,15.4,34.4,34.4,0,16.8-11.4,30.6-26.7,34.1v14c0,7.6-6.2,13.8-13.8,13.8s-13.8-6.2-13.8-13.8v-13.2h-13.8c-7.6,0-13.8-6.1-13.8-13.8s6.2-13.8,13.8-13.8h33.6c3.9,0,6.9-3,6.9-6.9,0-4.4-3-7.4-6.9-7.4h-12.9c-19,0-34.4-15.4-34.4-34.4,0-16.7,11.8-30.6,27.5-33.7v-14.5c0-7.6,6.2-13.8,13.8-13.8s13.8,6.2,13.8,13.8v13.8h12.9c7.6,0,13.8,6.2,13.8,13.8s-6.2,13.8-13.8,13.8h-33.6c-3.9,0-6.9,3-6.9,6.9s3.2,6.9,7,6.9Z"/>
  </g>
</svg>