<?xml version="1.0" encoding="utf-8"?>
<!-- Generator: Adobe Illustrator 27.8.1, SVG Export Plug-In . SVG Version: 6.00 Build 0)  -->
<svg version="1.1" id="Layer_1" xmlns="http://www.w3.org/2000/svg" xmlns:xlink="http://www.w3.org/1999/xlink" x="0px" y="0px"
	 viewBox="0 0 512 512" style="enable-background:new 0 0 512 512;" xml:space="preserve">
<style type="text/css">
	.st0{fill:#190787;}
</style>
<path class="st0" d="M372,224c-48.5,0-88,39.5-88,88s39.5,88,88,88s88-39.5,88-88S420.5,224,372,224z M409.3,297.9
	c-25.6,38.4-18.3,27.5-32,48c-4.9,7.4-14.9,9.3-22.2,4.4l-24-16c-7.3-4.9-9.3-14.8-4.4-22.2c4.9-7.3,14.8-9.3,22.2-4.4l10.7,7.1
	c25.5-38.3,24.1-37.2,28.4-39.7C402.6,266.7,418.7,283.8,409.3,297.9z M300,407.9V496c0,12.3,13.3,20,23.9,13.9l48.1-27.5l48.1,27.5
	c10.6,6.1,23.9-1.6,23.9-13.9v-88.1C401.4,440,342.7,440,300,407.9z M404,196.3V34.7C404,15.6,388.4,0,369.2,0H86.8
	C67.6,0,52,15.6,52,34.7v370.5c0,19.2,15.6,34.7,34.7,34.7H268c0-68.9-0.1-64.6,0.2-67.8C214.7,280.4,300,167.4,404,196.3z M148,80
	h136c8.8,0,16,7.2,16,16s-7.2,16-16,16H148c-8.8,0-16-7.2-16-16S139.2,80,148,80z M228,240h-80c-8.8,0-16-7.2-16-16
	c0-8.8,7.2-16,16-16h80c8.8,0,16,7.2,16,16C244,232.8,236.8,240,228,240z M148,176c-8.8,0-16-7.2-16-16c0-8.8,7.2-16,16-16h136
	c8.8,0,16,7.2,16,16c0,8.8-7.2,16-16,16H148z"/>
</svg>
