<svg xmlns="http://www.w3.org/2000/svg" viewBox="0 0 355.71 337.71"><defs><style>.cls-1{fill:#09AAEE;}</style></defs><g id="Layer_2" data-name="Layer 2"><g id="Layer_1-2" data-name="Layer 1"><path class="cls-1" d="M168.33,0h19c3.91.58,7.82,1.09,11.71,1.74,68.89,11.52,116,78.1,104,146.87-13.12,75-88.48,121.76-161.37,100.21C81.4,231,42.36,170.77,52.4,108.75c8.51-52.6,39.42-87,90-103.5C150.73,2.54,159.67,1.7,168.33,0Zm-3.18,76.68-2.64.88c-14.82,4.74-24,18.28-22.66,33.27a31.68,31.68,0,0,0,27.87,28.62c5,.62,10,.26,15.06.28,3.7,0,6,1.78,6.84,5.35,1,4.47-2.11,7.87-7.41,7.93-9.52.1-19,0-28.56.07a17.38,17.38,0,0,0-5.81.87,12.6,12.6,0,0,0,4,24.36c4.29.3,8.62.06,13.29.06,0,4.5-.1,8.44,0,12.37a12.67,12.67,0,0,0,25.34.19,74.78,74.78,0,0,0,0-8.73c-.22-3.1.46-4.76,3.88-6,13.67-4.82,22-18.54,20.69-33.09a31.28,31.28,0,0,0-26-28.12c-5.29-.87-10.79-.53-16.2-.67-4.94-.14-7.8-2.54-7.68-6.57.12-3.86,2.88-6.12,7.68-6.14,9.65,0,19.31,0,29,0,7.7,0,13.36-5.52,13.35-12.72s-5.69-12.57-13.42-12.66c-3.65,0-7.3,0-11.2,0,0-4.46.07-8.41,0-12.35-.14-7.42-5.61-13-12.65-13s-12.58,5.59-12.72,13C165.09,68,165.15,72.25,165.15,76.68Z"/><path class="cls-1" d="M0,243.22c.64-2.11,1.23-4.24,1.93-6.34a38.25,38.25,0,0,1,35.65-26.17q12.09-.21,24.19,0a6.79,6.79,0,0,1,4.36,1.92c25.69,27.15,57,43.71,94.13,47.69,50.24,5.38,93.16-10.67,128.41-46.93a7.9,7.9,0,0,1,6.46-2.83c9.37.32,18.86-.44,28.11.75,16.26,2.08,28.06,13.78,31.68,29.73a15.65,15.65,0,0,0,.79,2.13v61.93c-.29.84-.65,1.66-.86,2.52q-5.34,21-25.75,28.23c-2,.69-4,1.21-6,1.81H32.55c-1.21-.41-2.42-.87-3.65-1.21-13.35-3.65-22.25-12.09-27-25-.75-2.07-1.29-4.22-1.93-6.33Zm177.85,31H92.12c-5.42,0-10.85-.12-16.27,0a12.66,12.66,0,0,0-2.14,25.07,28.25,28.25,0,0,0,5.53.29H276.49a34.82,34.82,0,0,0,4-.06c5.35-.62,9.11-3.43,11-8.49,3.09-8.45-3.23-16.83-12.75-16.84Q228.25,274.14,177.85,274.19Z"/></g></g></svg>