<?xml version="1.0" encoding="UTF-8"?>
<svg id="Layer_2" data-name="Layer 2" xmlns="http://www.w3.org/2000/svg" viewBox="0 0 326 326">
  <defs>
    <style>
      .cls-1 {
        fill: #020068;
        stroke-width: 0px;
      }
    </style>
  </defs>
  <g id="Layer_1-2" data-name="Layer 1">
    <g>
      <path class="cls-1" d="m154.27,0c5.82,0,11.64,0,17.46,0,3.58.53,7.17,1,10.73,1.6,63.13,10.56,106.32,71.57,95.29,134.6-12.03,68.7-81.09,111.58-147.9,91.83-55.25-16.34-91.03-71.53-81.83-128.37C55.83,51.46,84.15,19.91,130.51,4.82,138.14,2.33,146.33,1.56,154.27,0Zm-2.91,70.27c-1.05.35-1.73.59-2.42.81-13.58,4.35-22.03,16.75-20.77,30.5,1.24,13.59,11.69,24.51,25.55,26.23,4.54.56,9.2.24,13.8.26,3.39.01,5.54,1.63,6.27,4.9.92,4.1-1.94,7.21-6.79,7.27-8.72.1-17.45-.01-26.18.07-1.78.02-3.68.18-5.32.8-5.11,1.92-8.12,7.25-7.31,12.47.84,5.43,5.12,9.44,11.01,9.85,3.94.27,7.91.05,12.18.05,0,4.12-.09,7.74.02,11.34.2,6.48,5.41,11.51,11.71,11.46,6.16-.05,11.23-4.97,11.51-11.29.12-2.66.18-5.34,0-7.99-.2-2.84.42-4.37,3.56-5.47,12.53-4.41,20.17-16.99,18.96-30.33-1.17-12.92-10.82-23.62-23.84-25.77-4.85-.8-9.89-.49-14.85-.62-4.53-.12-7.15-2.32-7.04-6.01.11-3.54,2.64-5.61,7.04-5.63,8.85-.03,17.69.04,26.54-.03,7.06-.05,12.25-5.06,12.23-11.66-.02-6.6-5.21-11.52-12.3-11.6-3.34-.04-6.69,0-10.26,0,0-4.09.06-7.71-.01-11.33-.13-6.8-5.15-11.93-11.6-11.95-6.44-.02-11.53,5.13-11.66,11.89-.07,3.87-.01,7.74-.01,11.8Z"/>
      <path class="cls-1" d="m0,239.41c.59-1.94,1.13-3.89,1.77-5.81,4.7-14.1,17.78-23.75,32.67-23.99,7.39-.12,14.79-.12,22.17.05,1.36.03,3.06.77,3.99,1.76,23.55,24.88,52.23,40.06,86.27,43.71,46.05,4.93,85.38-9.78,117.69-43.01,1.75-1.8,3.38-2.68,5.92-2.6,8.59.29,17.28-.4,25.76.68,14.91,1.91,25.72,12.63,29.04,27.25.15.67.48,1.3.72,1.95v56.76c-.27.77-.59,1.52-.79,2.31-3.26,12.83-11.11,21.47-23.59,25.88-1.79.63-3.63,1.11-5.45,1.65H29.83c-1.12-.37-2.22-.8-3.35-1.11-12.23-3.35-20.39-11.08-24.71-22.93-.69-1.9-1.19-3.86-1.77-5.8,0-18.92,0-37.84,0-56.76Zm162.99,28.38c-26.19,0-52.38,0-78.57,0-4.97,0-9.95-.11-14.91.04-6.01.18-10.88,4.95-11.27,10.79-.39,5.71,3.61,11.04,9.31,12.19,1.64.33,3.38.26,5.07.26,60.26.01,120.52,0,180.78,0,1.21,0,2.44.08,3.63-.05,4.9-.57,8.35-3.14,10.04-7.78,2.83-7.74-2.96-15.42-11.69-15.44-30.8-.04-61.59-.02-92.39-.02Z"/>
    </g>
  </g>
</svg>