<?xml version="1.0" encoding="UTF-8"?>
<svg id="Layer_2" data-name="Layer 2" xmlns="http://www.w3.org/2000/svg" xmlns:xlink="http://www.w3.org/1999/xlink" viewBox="0 0 1107.08 195.98">
  <defs>
    <style>
      .cls-1, .cls-2 {
        fill: #fff;
      }

      .cls-3 {
        fill: url(#linear-gradient);
      }

      .cls-3, .cls-2, .cls-4, .cls-5, .cls-6 {
        stroke-width: 0px;
      }

      .cls-4 {
        fill: #231f20;
      }

      .cls-5 {
        fill: #1b1c1c;
      }

      .cls-6 {
        fill: #59595c;
      }
    </style>
    <linearGradient id="linear-gradient" x1="187.39" y1="195.4" x2="18.04" y2=".58" gradientUnits="userSpaceOnUse">
      <stop offset=".59" stop-color="#190787"/>
      <stop offset=".79" stop-color="#14056d"/>
      <stop offset="1" stop-color="#090333"/>
    </linearGradient>
  </defs>
  <g id="Layer_1-2" data-name="Layer 1">
    <g id="Layer_2-2" data-name="Layer 2">
      <g id="Layer_2-3" data-name="Layer 2">
        <g id="Layer_1-2" data-name="Layer 1-2">
          <path class="cls-5" d="m782.73,141.62c-3.03,3.04-7.95,3.06-10.99.03-1.47-1.47-2.3-3.46-2.29-5.54-.06-4.22,3.3-7.69,7.52-7.75.08,0,.17,0,.25,0,4.3.05,7.75,3.57,7.7,7.87-.02,1.99-.81,3.89-2.19,5.32"/>
          <rect class="cls-3" width="205.43" height="195.98" rx="29.87" ry="29.87"/>
          <path class="cls-1" d="m35.72,51.67c-6.43,3.97-11.42,9.9-14.24,16.91l19.96,11.71c3.3-7.52,8.39-11.28,15.26-11.27,5.67-.47,10.66,3.75,11.12,9.43.04.51.05,1.03.01,1.54,0,5.03-3.51,11.15-10.52,18.38l-34.79,36.18v17.22h70.57v-22.85h-34.89l17.26-17.37c10.74-10.79,16.13-21.65,16.15-32.6,0-10.07-3.43-18.11-10.29-24.1-6.88-5.97-15.74-9.17-24.84-8.96-7.32-.06-14.51,1.94-20.75,5.77"/>
          <polygon class="cls-1" points="132.84 47.96 99.78 113.2 99.78 135.14 143.17 135.14 143.17 113.2 125.27 113.2 158.34 47.96 132.84 47.96"/>
          <rect class="cls-1" x="174.57" y="113.2" width="6.75" height="21.94"/>
          <polygon class="cls-2" points="161.34 81.97 156.71 81.97 156.71 90.96 147.08 90.96 147.08 113.2 147.08 135.14 147.08 151.75 156.71 151.75 156.71 160.74 161.34 160.74 161.34 151.75 170.98 151.75 170.98 90.96 161.34 90.96 161.34 81.97"/>
        </g>
      </g>
    </g>
    <g>
      <path class="cls-4" d="m311.57,59.49c9.04,0,16.32,2.93,21.85,8.77,5.53,5.85,8.29,13.72,8.29,23.6v49.44h-17.22v-48.32c0-5.53-1.38-9.81-4.15-12.84-2.77-3.03-6.54-4.55-11.32-4.55-5.32,0-9.54,1.75-12.68,5.26-3.14,3.51-4.7,8.77-4.7,15.79v44.65h-17.22v-48.32c0-5.53-1.3-9.81-3.91-12.84-2.61-3.03-6.3-4.55-11.08-4.55-5.21,0-9.46,1.78-12.76,5.34-3.3,3.56-4.94,8.8-4.94,15.71v44.65h-17.22V61.57h17.22v9.57c5.1-7.76,12.7-11.64,22.8-11.64s17.75,4.2,22.65,12.6c5.32-8.4,13.45-12.6,24.4-12.6Z"/>
      <path class="cls-4" d="m416.99,61.57h17.22v79.74h-17.22v-11.48c-6.49,9.04-15.79,13.56-27.91,13.56-10.95,0-20.31-4.07-28.07-12.2-7.76-8.13-11.64-18.05-11.64-29.74s3.88-21.74,11.64-29.82c7.76-8.08,17.12-12.12,28.07-12.12,12.12,0,21.42,4.47,27.91,13.4v-11.32Zm-43.22,58.13c4.79,4.84,10.79,7.26,18.02,7.26s13.24-2.42,18.02-7.26c4.78-4.84,7.18-10.92,7.18-18.26s-2.39-13.42-7.18-18.26c-4.78-4.84-10.79-7.26-18.02-7.26s-13.24,2.42-18.02,7.26c-4.78,4.84-7.18,10.92-7.18,18.26s2.39,13.42,7.18,18.26Z"/>
      <path class="cls-4" d="m465.15,74.96c4.36-9.89,12.54-14.83,24.56-14.83v18.66c-6.59-.42-12.33,1.14-17.22,4.7-4.89,3.56-7.34,9.44-7.34,17.62v40.19h-17.22V61.57h17.22v13.4Z"/>
      <path class="cls-4" d="m566.57,141.31h-20.57l-32.69-36.8v36.8h-17.22V29.67h17.22v67.31l30.94-35.41h21.05l-35.09,39.07,36.36,40.67Z"/>
      <path class="cls-4" d="m579.01,108.77c1.28,6.06,4.2,10.71,8.77,13.96,4.57,3.24,10.15,4.86,16.75,4.86,9.14,0,16-3.29,20.57-9.89l14.19,8.29c-7.87,11.59-19.51,17.38-34.93,17.38-12.97,0-23.44-3.96-31.42-11.88-7.97-7.92-11.96-17.94-11.96-30.06s3.93-21.87,11.8-29.9c7.87-8.03,17.97-12.04,30.3-12.04,11.69,0,21.29,4.09,28.79,12.28,7.5,8.19,11.24,18.13,11.24,29.82,0,1.81-.21,4.2-.64,7.18h-63.47Zm-.16-14.03h46.89c-1.17-6.48-3.85-11.38-8.05-14.67-4.2-3.29-9.12-4.94-14.75-4.94-6.38,0-11.7,1.75-15.95,5.26-4.25,3.51-6.96,8.29-8.13,14.35Z"/>
      <path class="cls-4" d="m693.84,78.15h-19.78v38.27c0,3.3.74,5.66,2.23,7.1,1.49,1.44,3.69,2.23,6.62,2.39,2.92.16,6.56.13,10.92-.08v15.47c-13.18,1.59-22.65.45-28.39-3.43s-8.61-11.03-8.61-21.45v-38.27h-14.67v-16.59h14.67v-17.22l17.22-5.1v22.33h19.78v16.59Z"/>
      <path class="cls-4" d="m715.69,83.47c0,2.63,1.47,4.7,4.42,6.22,2.95,1.52,6.48,2.92,10.61,4.19,4.12,1.27,8.35,2.57,12.68,3.91,4.33,1.33,7.94,3.8,10.84,7.4,2.9,3.6,4.35,8.15,4.35,13.63,0,7.65-2.95,13.66-8.85,18.02-5.9,4.36-13.32,6.54-22.25,6.54-7.87,0-14.62-1.65-20.25-4.94-5.64-3.29-9.73-7.87-12.28-13.71l14.83-8.61c2.76,7.65,8.66,11.48,17.7,11.48s13.56-2.98,13.56-8.93c0-2.55-1.46-4.62-4.39-6.22-2.93-1.59-6.45-3.03-10.57-4.3-4.12-1.27-8.35-2.57-12.68-3.91-4.33-1.33-7.95-3.72-10.88-7.18-2.92-3.45-4.39-7.84-4.39-13.16,0-7.34,2.79-13.24,8.37-17.7s12.52-6.7,20.81-6.7c6.59,0,12.46,1.46,17.62,4.39,5.16,2.93,9.12,6.99,11.88,12.2l-14.51,8.13c-2.77-6.06-7.76-9.09-14.99-9.09-3.3,0-6.06.71-8.29,2.13-2.23,1.42-3.35,3.49-3.35,6.22Z"/>
    </g>
    <g>
      <path class="cls-6" d="m835.96,143.45c-12.98,0-23.77-4.31-32.38-12.92-8.61-8.61-12.92-19.29-12.92-32.04s4.31-23.43,12.92-32.04c8.61-8.61,19.41-12.92,32.38-12.92,8.38,0,15.96,1.98,22.74,5.94,6.77,3.96,11.71,9.33,14.81,16.11l-7.06,4.13c-2.53-5.51-6.52-9.87-11.97-13.09-5.46-3.21-11.63-4.82-18.52-4.82-10.33,0-19.01,3.53-26.01,10.59-7.01,7.06-10.51,15.76-10.51,26.1s3.5,19.03,10.51,26.1c7,7.06,15.67,10.59,26.01,10.59,6.89,0,13.06-1.61,18.52-4.82,5.45-3.21,9.62-7.58,12.49-13.09l7.23,4.31c-3.44,6.66-8.58,11.97-15.42,15.93-6.83,3.96-14.44,5.94-22.82,5.94Z"/>
      <path class="cls-6" d="m924.84,143.45c-12.63,0-23.34-4.33-32.12-13-8.79-8.67-13.18-19.32-13.18-31.95s4.39-23.28,13.18-31.95c8.79-8.67,19.49-13,32.12-13s23.17,4.34,31.95,13c8.79,8.67,13.18,19.32,13.18,31.95s-4.39,23.28-13.18,31.95c-8.78,8.67-19.44,13-31.95,13Zm-25.92-18.95c7.06,7.12,15.7,10.68,25.92,10.68s18.83-3.56,25.84-10.68c7-7.12,10.51-15.79,10.51-26.01s-3.5-18.89-10.51-26.01c-7.01-7.12-15.62-10.68-25.84-10.68s-18.86,3.56-25.92,10.68c-7.06,7.12-10.59,15.79-10.59,26.01s3.53,18.89,10.59,26.01Z"/>
      <path class="cls-6" d="m1075.73,53.54c9.42,0,16.99,2.93,22.74,8.79,5.74,5.86,8.61,14.07,8.61,24.63v54.6h-8.61v-54.6c0-8.04-2.1-14.24-6.29-18.6-4.19-4.36-9.73-6.55-16.62-6.55-7.69,0-13.93,2.64-18.69,7.92-4.77,5.28-7.15,13.21-7.15,23.77v48.06h-8.61v-54.6c0-8.04-1.98-14.24-5.94-18.6-3.96-4.36-9.33-6.55-16.11-6.55-7.58,0-13.93,2.67-19.03,8.01-5.11,5.34-7.67,13.24-7.67,23.68v48.06h-8.61V55.43h8.61v14.81c5.97-11.14,15.21-16.71,27.73-16.71,6.31,0,11.83,1.52,16.54,4.56,4.71,3.04,8.15,7.38,10.33,13,2.98-5.86,7.03-10.25,12.14-13.18,5.11-2.93,10.65-4.39,16.62-4.39Z"/>
    </g>
  </g>
</svg>