<?xml version="1.0" encoding="UTF-8"?>
<svg id="Layer_2" data-name="Layer 2" xmlns="http://www.w3.org/2000/svg" viewBox="0 0 383.95 383.95">
  <defs>
    <style>
      .cls-1 {
        fill: #020068;
        stroke-width: 0px;
      }
    </style>
  </defs>
  <g id="Layer_1-2" data-name="Layer 1">
    <g>
      <path class="cls-1" d="m169.48,0c5,0,10,0,15,0,5.37,1.02,10.84,1.67,16.09,3.13,18.01,5.01,33.04,14,40.98,32.01.33.75.95,1.5,1.63,1.95,11.3,7.43,16.24,18.53,16.96,31.41.78,13.95.49,27.96.83,41.93.04,1.66.85,3.54,1.86,4.9,2.95,3.96,5.57,7.91,5.7,13.13.06,2.68-.84,3.91-3.43,4.79-24.35,8.2-48.61,16.62-72.96,24.81-20.59,6.93-32.26,22.78-32.3,44.44-.04,19.99.05,39.97-.02,59.96-.12,30.04,8.64,57.25,25.8,81.83,1.61,2.31,3.24,4.6,5.3,7.54h-5.07c-56.71,0-113.43-.1-170.14.12-7.51.03-12.79-2.19-15.71-9.22,0-1.75,0-3.5,0-5.25.51-1.66,1.1-3.3,1.53-4.98,2.42-9.55,4.72-19.14,7.23-28.67,5.27-20.08,17.9-33.26,37.58-39.76,19.19-6.33,38.34-12.78,57.58-18.96,5.17-1.66,8.6-4.81,10.88-9.54,3.48-7.23,4.62-15,5.07-22.88.07-1.21-1.05-2.63-1.91-3.72-4.39-5.59-9.15-10.9-13.24-16.7-4-5.66-6.49-12.15-7.02-19.13-.27-3.55-.19-6.84-3.89-8.96-1.22-.7-2.02-2.57-2.49-4.06-2.45-7.85-4.92-15.69-7-23.64-2.17-8.27-.64-15.82,5.43-22.23.74-.78,1.01-2.23,1.06-3.39.42-10.11.69-20.23,1.1-30.34.13-3.36.19-6.78.81-10.07C98.81,38.17,129.52,7.61,161.82,1.5,164.37,1.01,166.93.5,169.48,0Z"/>
      <path class="cls-1" d="m284.96,383.95c-11.9-6.98-24.26-13.29-35.59-21.1-19.14-13.2-34.89-29.81-45.69-50.69-7.52-14.54-11.55-29.99-11.63-46.38-.1-21.23-.04-42.46-.02-63.69,0-7.3,2.66-10.92,9.66-13.31,26.9-9.17,53.81-18.31,80.69-27.53,3.71-1.27,7.22-1.35,10.95-.07,27.12,9.29,54.26,18.55,81.44,27.69,4.7,1.58,7.34,4.83,9.18,9.1v74.99c-.23.83-.59,1.64-.67,2.49-1.02,10.92-3.96,21.32-8.45,31.29-10.35,22.94-26.76,40.95-47.07,55.23-11.66,8.19-24.5,14.71-36.8,21.99h-6Zm-3.27-111.09c-2.73-2.34-5.1-4.37-7.47-6.4-2.47-2.11-4.91-4.25-7.42-6.31-7.48-6.14-17.22-5.51-23.08,1.45-5.9,7.01-5,16.62,2.32,23.01,8.94,7.79,18,15.46,27,23.18,3.8,3.26,8.18,4.79,13.16,4.07,4.24-.61,7.77-2.65,10.44-6.05,14.59-18.55,29.21-37.06,43.71-55.68,5.76-7.4,4.57-17.19-2.45-22.71-7.06-5.56-16.7-4.37-22.7,2.82-1.6,1.92-3.11,3.91-4.65,5.87-9.56,12.16-19.11,24.33-28.87,36.75Z"/>
    </g>
  </g>
</svg>