<?xml version="1.0" encoding="UTF-8"?>
<svg id="Layer_2" data-name="Layer 2" xmlns="http://www.w3.org/2000/svg" viewBox="0 0 320.21 352.46">
  <defs>
    <style>
      .cls-1 {
        fill: #020068;
        stroke-width: 0px;
      }
    </style>
  </defs>
  <g id="Layer_1-2" data-name="Layer 1">
    <g>
      <path class="cls-1" d="m0,295.46c1.44-7.32,2.19-14.87,4.44-21.93,14.49-45.39,45.34-72.22,92.38-80.13,5.75-.97,11.69-1.14,17.54-1.19,19.62-.14,39.24-.24,58.85.04,7.83.11,15.66,1.22,23.48,1.95,3.68.34,7,1.51,7.93,5.62.95,4.22-.66,7.6-4.14,10.09-9.98,7.12-18.57,15.64-24.98,26.09-19.78,32.3-20.81,65.32-3.38,98.97,1.34,2.59,2.61,5.5,2.8,8.33.3,4.67-2.96,7.35-6.95,9.15H44.99c-.84-.21-1.66-.5-2.51-.62-20.56-3.09-34.03-14.59-40.56-34.27-.77-2.32-1.29-4.73-1.92-7.1,0-5,0-10,0-15Z"/>
      <path class="cls-1" d="m148.48,0c6.93,1.46,14.04,2.33,20.74,4.48,32.98,10.54,56.59,42.87,54.62,79.92-2.1,39.53-32.12,69.19-67,74.79-51.16,8.22-96.88-33.76-92.53-85.27C67.64,34.6,97.6,4.39,136.98.61c.85-.08,1.67-.4,2.5-.61,3,0,6,0,9,0Z"/>
      <path class="cls-1" d="m254.22,352.46c-6.81-1.81-12.09-5.33-13.76-12.67-.41-1.8-.46-3.71-.47-5.57-.04-9.84-.02-19.68-.02-29.95-9.43,0-18.51.02-27.59-.02-2.37-.01-4.77,0-7.09-.39-8.25-1.38-13.86-8.61-13.28-16.86.57-8.14,7.3-14.62,15.65-14.75,9.24-.15,18.49-.04,27.74-.04,1.36,0,2.71,0,4.57,0,0-4.41,0-8.61,0-12.81,0-6.12-.03-12.24,0-18.37.07-9.66,6.82-16.77,15.9-16.81,9.09-.04,15.97,6.94,16.12,16.63.14,9.49.03,18.99.04,28.49,0,.84.11,1.68.2,2.86,9.3,0,18.39,0,27.48,0,12.56,0,16.3,2.6,20.5,14.25v3.75c-4.34,11.45-8.18,14.06-20.7,14.06-7.25,0-14.49,0-21.74,0h-5.28c-.25.78-.38,1.01-.38,1.25-.03,8.74-.06,17.49-.07,26.23-.01,12.52-2.6,16.35-14.06,20.7h-3.75Z"/>
    </g>
  </g>
</svg>