<?xml version="1.0" encoding="UTF-8"?>
<svg id="Layer_2" data-name="Layer 2" xmlns="http://www.w3.org/2000/svg" viewBox="0 0 239.11 15.57">
  <defs>
    <style>
      .cls-1 {
        fill: #989da0;
        stroke-width: 0px;
      }
    </style>
  </defs>
  <g id="Layer_1-2" data-name="Layer 1">
    <g>
      <path class="cls-1" d="m6.71,1.07c2.72-1.16,5.45-1.63,8.17-.05,3.6,2.09,4.94,6.58,3.09,10.27-1.83,3.63-6.06,5.2-9.92,3.67-.44-.17-.89-.31-1.33-.47l-2.32-2.32c-1.49-2.93-1.49-5.85,0-8.78l2.32-2.32Z"/>
      <path class="cls-1" d="m4.39,3.4c-1.49,2.93-1.49,5.85,0,8.78L0,7.79,4.39,3.4Z"/>
      <path class="cls-1" d="m225.83,13.24c-3.06-3.08-3.05-7.88.04-10.95,3.08-3.07,7.88-3.05,10.95.04,3.07,3.08,3.05,7.88-.04,10.95-3.08,3.06-7.89,3.05-10.95-.04Z"/>
      <path class="cls-1" d="m137.69,13.29c-3.02-3.02-3.03-7.94-.03-10.98,3-3.03,7.93-3.08,10.99-.11,3.07,2.98,3.09,8.13.03,11.13-3.03,2.98-7.99,2.96-10.99-.05Z"/>
      <path class="cls-1" d="m93.69,13.29c-3.09-3.07-3.11-7.87-.06-10.95,3.07-3.09,7.87-3.12,10.95-.06,3.09,3.07,3.12,7.86.06,10.95-3.07,3.09-7.87,3.12-10.95.06Z"/>
      <path class="cls-1" d="m192.73,2.25c3.04,3.01,3.08,7.93.1,10.97-3.02,3.09-8.11,3.11-11.12.05-2.96-3.02-2.95-8.02.04-11.01,3-3,7.97-3,10.99-.02Z"/>
      <path class="cls-1" d="m60.64,2.34c2.99,3.04,2.95,7.97-.09,10.97-3.01,2.99-8,2.98-10.99,0-3.03-3.03-2.99-8.19.1-11.14,3.09-2.95,8-2.88,10.99.17Z"/>
    </g>
  </g>
</svg>