<?xml version="1.0" encoding="UTF-8"?>
<svg id="Layer_2" data-name="Layer 2" xmlns="http://www.w3.org/2000/svg" viewBox="0 0 524.16 401.95">
  <defs>
    <style>
      .cls-1 {
        fill: #fff;
        stroke-width: 0px;
      }
    </style>
  </defs>
  <g id="Layer_1-2" data-name="Layer 1">
    <g>
      <path class="cls-1" d="m262.82,0c5.17,1.34,10.52,2.2,15.49,4.08,45.5,17.2,56.24,75.54,19.96,108.03-.44.4-1.1.55-1.66.82.18.35.37.7.55,1.05,1.31,0,2.62,0,3.94,0,52.75,0,105.5-.04,158.25.01,31.06.03,56.65,20.66,63.37,50.91,6.4,28.78-8.78,59.02-35.63,70.95-.88.39-1.82.64-3.01,1.05,0-15.29,0-30.27,0-45.25,0-4.5.42-9.05-.08-13.49-1.87-16.67-8.45-24.25-23.96-24.25-12.62,0-25.25,0-37.87,0-50,0-100,0-150,0-1.37,0-2.75-.04-4.12.03-10.55.49-11.97,1.96-11.97,12.28,0,29.25.01,58.49,0,87.74-.01,20.45-13.6,33.99-34.12,33.99-41.25.01-82.5.01-123.75,0-20.5,0-34.12-13.57-34.12-33.99-.01-61.87,0-123.73,0-185.6,0-1.34,0-2.69,0-4.23h191.9v50.17h24.1v-4.04c0-14.87-.09-29.75.04-44.62.06-7.35-2.59-13.68-6.7-19.48-2.64-3.72-6.81-4.95-11.07-5.6-2.83-.44-5.72-.61-8.59-.61-62.25-.03-124.5.01-186.75-.07-7.43-.01-14.05,2.09-20.03,6.25-5.92,4.12-6.78,10.59-6.84,17.02-.18,18.5-.07,36.99-.07,55.49,0,1.33,0,2.66,0,4.45-14.21-5.85-24.94-14.97-32.09-28.02C-13.6,55.69,10.76,7.09,55.21.65c.72-.1,1.4-.43,2.1-.65,68.5,0,137,0,205.5,0Zm-115.53,194.03c-.39.3-.79.6-1.18.9-3.44-3.73-6.69-7.66-10.38-11.13-6.23-5.87-15.19-3.74-18.3,4.25-2.06,5.3-.84,10.03,3.18,14.05,6.54,6.53,13,13.14,19.61,19.6,12.46,12.18,28.87,12.16,41.36-.04,6.52-6.37,12.93-12.85,19.33-19.35,5.47-5.55,5.72-13.41.68-18.38-5.07-5-12.8-4.68-18.35.91-3.21,3.24-6.21,6.68-9.31,10.03-.36-.23-.73-.46-1.09-.69,0-1.32,0-2.63,0-3.95,0-20.86.04-41.71-.04-62.57-.03-7.29-4.12-11.75-10.9-12.32-7.43-.63-13.03,3.27-14.36,10.14-.3,1.57-.24,3.23-.24,4.85-.01,21.23,0,42.45,0,63.68Z"/>
      <path class="cls-1" d="m295.82,401.95c-3.07-1.01-6.31-1.66-9.17-3.09-12.19-6.08-18.53-16.07-18.55-29.7-.07-62.49-.03-124.98-.03-187.47v-3.54h192v4.29c0,61.74,0,123.48,0,185.22,0,17.94-9.26,29.62-26.74,33.8-.35.08-.67.32-1,.49h-136.5Zm55.47-93.78c-.37.23-.74.47-1.11.7-3.18-3.44-6.25-7-9.57-10.31-5.32-5.3-11.22-5.52-16.21-.85-4.89,4.58-5.5,12.25-.79,17.19,7.58,7.95,15.24,15.87,23.41,23.2,9.94,8.9,24.95,9.22,35.08.46,8.57-7.41,16.38-15.74,24.26-23.92,3.59-3.73,3.78-9.55,1.3-13.99-2.44-4.37-7.16-7.05-12.27-5.97-2.87.61-5.74,2.3-8.04,4.19-3.55,2.92-6.6,6.43-10.49,10.32,0-2.54,0-3.91,0-5.28,0-20.61.03-41.21-.02-61.82-.01-6.58-2.93-10.78-8.29-12.33-9.16-2.66-17.17,3.11-17.21,12.65-.1,20.61-.03,41.21-.03,61.82,0,1.31,0,2.63,0,3.94Z"/>
    </g>
  </g>
</svg>