<svg xmlns="http://www.w3.org/2000/svg" viewBox="0 0 298.13 322.3"><defs><style>.cls-1{fill:#09AAEE;}</style></defs><g id="Layer_2" data-name="Layer 2"><g id="Layer_1-2" data-name="Layer 1"><path class="cls-1" d="M111.49,0c4.19,1.43,8.31,2.91,11.52,6.24,3.46,3.59,5.76,7.71,6.16,12.68.18,2.22,1.06,2.63,3.08,2.61,9.5-.1,19-.07,28.51,0,7.07,0,11.58,4.4,11.67,11.42q.13,10.06,0,20.13c-.1,7-4.59,11.4-11.68,11.4q-52.83,0-105.67,0C48,64.44,43.62,60.07,43.56,53q-.08-9.9,0-19.79c0-7.41,4.28-11.67,11.63-11.69,9.5,0,19,0,28.51,0,2,0,2.83-.25,3-2.6A21.12,21.12,0,0,1,103,.62c.62-.14,1.37.05,1.81-.62Z"/><path class="cls-1" d="M298.13,145c-1.25.75-1,2.14-1.25,3.22-1.33,5.11-4.67,8.79-8.31,12.32-1.59,1.55-2.15-.16-2.86-.87-8-8-16-16-24-23.93-1.49-1.48-3.1-2.86-4.63-4.27,5.54-6.77,11.95-11,20.71-10.24,10.13.94,17.54,7.8,19.56,17.78.13.67-.36,1.64.75,2Z"/><path class="cls-1" d="M.05,63.11c1.31.75.63,2,.63,3q.06,116.51,0,233c0,1,.68,2.24-.63,3Z"/><path class="cls-1" d="M.05,302.78c1.06.33.64,1.29.81,2,2.15,8.76,7.41,14.51,16.21,16.89a5,5,0,0,1,1.1.61c-5.48,0-11-.06-16.45,0C.28,322.32,0,322,0,320.57.11,314.64.05,308.71.05,302.78Z"/><path class="cls-1" d="M215.22,256.57c-1.17-.38-2,.72-2.85,1.45s-1.45,1.4-2.16,2.11c-7.52,7.51-15.06,15-22.53,22.57a12.79,12.79,0,0,1-6.93,3.74q-28.14,5.56-56.28,11.23c-4.13.83-4.33.64-3.51-3.5,3.66-18.32,7.4-36.62,10.93-55a16.9,16.9,0,0,1,5-9.2q38.05-37.87,76-75.87a11.38,11.38,0,0,0,3.67-8.9c-.17-10.06-.06-20.14-.06-30.2,0-16.45.09-32.9,0-49.34-.1-14.2-11.08-24.51-24.82-23.67-2.65.16-3.89,1.24-3.87,3.89,0,2.35,0,4.7,0,7.05-.44,15.76-11.57,26.63-27.3,26.66H138.29c-27.52,0-55-.2-82.56.08C40.05,79.86,27.29,67,28.48,52.5a57.19,57.19,0,0,0,0-7c-.08-2.15-1.15-3.15-3.32-3.39A23,23,0,0,0,2.48,53.49C.88,56.31.79,59.44.05,62.44v.67c.65,1.15.33,2.41.33,3.61q0,115.89,0,231.77c0,1.21.32,2.47-.33,3.62v.67C.87,313,8,321.21,18.17,322.25H197.42c3.26-.64,6.59-1,9.35-3.19,5.81-4.65,9.5-10.49,9.63-18,.24-13.75.11-27.52,0-41.28C216.44,258.58,216.65,257,215.22,256.57Zm-101.35-12.2h-69c-5.79,0-9.37-3.19-9.31-8.19.06-4.82,3.61-7.9,9.24-7.91q17.42,0,34.85,0,17.09,0,34.18,0c5.79,0,9.38,3.19,9.31,8.17S119.5,244.36,113.87,244.37Zm-71-145c1-.1,2,0,3,0H170c.67,0,1.34,0,2,0,4.9.15,8.52,3.6,8.49,8.09s-3.65,8-8.57,8c-19,0-38,0-57,0h-7q-31.69,0-63.39,0c-5.19,0-8.69-3-8.9-7.58A8,8,0,0,1,42.84,99.41Zm-.1,43a31.16,31.16,0,0,1,3.35-.06H169.85c.67,0,1.35,0,2,0,4.94.13,8.55,3.49,8.59,8s-3.57,8-8.47,8.1c-4.24.08-8.49,0-12.74,0H107.93q-31.7,0-63.39,0c-5.24,0-8.73-3-9-7.48A8,8,0,0,1,42.74,142.39Zm.5,43c3-.16,6,0,9-.05H148.2c4.92,0,8.21,2.35,9,6.32,1.07,5.42-2.63,9.75-8.54,9.77-17.44.05-34.87,0-52.31,0-17.22,0-34.43,0-51.64,0-4,0-7-1.34-8.61-5.09A8,8,0,0,1,43.24,185.34Zm61.78,102q-30,0-60.07,0c-5.86,0-9.44-3.1-9.42-8.09s3.59-8,9.5-8H105.1c5.76,0,9.53,3.25,9.5,8.09S110.82,287.33,105,287.34Z"/><path class="cls-1" d="M139.45,279.31c1.31-6.74,2.53-13.06,3.79-19.37,1-4.93,2.19-9.82,3-14.78a11.29,11.29,0,0,1,3.48-6.58q46.83-46.7,93.5-93.54c2.05-2.07,3.05-2.16,5.12,0,8.56,8.84,17.31,17.5,26.09,26.12,1.48,1.46,1.45,2.14,0,3.59q-47.77,47.64-95.44,95.4a6.77,6.77,0,0,1-3.71,2C163.52,274.42,151.82,276.81,139.45,279.31Z"/></g></g></svg>