<?xml version="1.0" encoding="UTF-8"?>
<svg id="Layer_2" data-name="Layer 2" xmlns="http://www.w3.org/2000/svg" viewBox="0 0 343.46 342.57">
  <defs>
    <style>
      .cls-1 {
        fill: #fff;
        stroke-width: 0px;
      }
    </style>
  </defs>
  <g id="Layer_1-2" data-name="Layer 1">
    <g>
      <path class="cls-1" d="m343.46,251.51c-.36,1.82-.6,3.69-1.12,5.47-3.44,11.89-11.67,17.8-24.23,18.83,0,5.58,0,11.16,0,16.75,0,3.87.07,7.75-.03,11.62-.14,5.8-3.87,9.64-9.22,9.68-5.3.03-9.27-3.78-9.43-9.54-.2-6.86-.06-13.74-.06-20.61,0-2.59,0-5.19,0-7.53-3.54-.88-6.84-1.23-9.73-2.51-9.85-4.37-15.06-12.13-15.1-22.94-.11-26.11-.04-52.21-.04-78.32,0-35.1.38-70.21-.19-105.3-.23-14.25,6.86-27.55,24.87-29.08.06-1.27.17-2.59.18-3.92.02-7.87-.05-15.74.03-23.61.06-6.47,3.96-10.63,9.65-10.5,5.59.13,9.03,4.09,9.06,10.6.05,7.87,0,15.74.02,23.61,0,1.22.1,2.44.17,3.85,2.01.28,3.87.41,5.65.82,10.23,2.33,17.46,10.33,18.89,20.76.13.97.42,1.92.63,2.89v188.99Z"/>
      <path class="cls-1" d="m0,67.02c.37-1.93.64-3.89,1.11-5.8,2.53-10.1,10.77-17.19,21.24-18.35.85-.09,1.69-.26,3-.47,0-3.54,0-6.99,0-10.44,0-7.25-.05-14.49.02-21.74C25.42,4.04,28.97.12,34.44,0c5.57-.12,9.55,3.92,9.63,10.14.12,9.37.03,18.74.04,28.11,0,1.34,0,2.69,0,4.15,2.32.37,4.3.54,6.21,1.01,10.73,2.61,18.33,11.93,18.61,23.02.17,6.87.05,13.74.05,20.61,0,50.22,0,100.45,0,150.67,0,16.63-7.04,24.95-23.54,27.85-.35.06-.67.24-1.33.49,0,9.66,0,19.38,0,29.1,0,1.62.06,3.27-.18,4.86-.75,4.98-4.85,8.46-9.57,8.27-4.98-.21-8.85-4.04-8.93-9.27-.14-9.62-.06-19.24-.07-28.86,0-1.36,0-2.72,0-4.31-2.31-.37-4.41-.57-6.44-1.06-9.68-2.33-16.92-10.52-18.27-20.52-.15-1.09-.42-2.16-.64-3.24,0-58,0-115.99,0-173.99Z"/>
      <path class="cls-1" d="m226.75,128.97c12.25,1,20.51,6.62,23.96,18.17.87,2.93,1.01,6.16,1.01,9.26.06,44.47-.22,88.94.19,133.41.13,14.07-5.87,27.34-25.24,29.46,0,4.75.2,9.58-.05,14.39-.33,6.29-5.88,10.15-11.83,8.54-4.05-1.1-6.61-4.63-6.76-9.7-.12-4.35-.03-8.71-.03-13.25-1.46-.25-2.65-.45-3.84-.65-12.52-2.12-21.03-11.71-21.06-24.4-.1-46.72-.1-93.44,0-140.16.03-13.95,9.56-23.56,24.89-25.01,0-1.86,0-3.79,0-5.73,0-2.37-.04-4.75.01-7.12.14-6.51,3.95-10.81,9.48-10.75,5.55.06,9.17,4.3,9.25,10.92.05,4.11,0,8.21,0,12.62Z"/>
      <path class="cls-1" d="m135.45,233.71c0,6.35.1,12.34-.03,18.32-.12,5.4-2.97,9.07-7.4,9.95-5.88,1.16-10.89-2.78-11.23-8.99-.18-3.24-.07-6.49-.08-9.74,0-3.11,0-6.21,0-9.48-1.23-.19-2.18-.33-3.14-.48-13-1.95-21.72-11.39-21.8-24.51-.19-28.6-.2-57.21,0-85.81.1-13.98,8.79-22.53,24.94-24.94,0-4.46,0-9.04,0-13.61,0-1.87-.05-3.75.05-5.62.31-5.3,3.97-9.09,8.91-9.32,4.98-.23,9.3,3.56,9.62,8.97.31,5.23.12,10.49.15,15.73,0,1.23,0,2.45,0,3.88,2.02.27,3.74.38,5.41.74,11.23,2.41,19.35,11.83,19.43,23.51.2,28.98.2,57.96,0,86.93-.08,12.31-8.62,21.73-20.79,23.84-1.21.21-2.43.37-4.08.62Z"/>
    </g>
  </g>
</svg>