<svg xmlns="http://www.w3.org/2000/svg" viewBox="0 0 343.46 342.57"><defs><style>.cls-1{fill:#09AAEE;}</style></defs><g id="Layer_2" data-name="Layer 2"><g id="Layer_1-2" data-name="Layer 1"><path class="cls-1" d="M343.46,251.51c-.37,1.83-.6,3.69-1.12,5.47-3.44,11.89-11.67,17.79-24.23,18.83v16.75c0,3.87.07,7.75,0,11.62-.14,5.8-3.87,9.64-9.22,9.68s-9.27-3.78-9.43-9.54c-.2-6.87-.06-13.74-.07-20.61v-7.53c-3.54-.89-6.84-1.23-9.73-2.52-9.85-4.36-15.06-12.13-15.1-22.93-.12-26.11,0-52.21,0-78.32,0-35.1.38-70.21-.19-105.3-.23-14.25,6.86-27.55,24.87-29.09.06-1.26.18-2.59.18-3.91,0-7.87-.05-15.74,0-23.61C299.44,4,303.34-.13,309,0s9,4.1,9.07,10.6c0,7.87,0,15.74,0,23.61,0,1.22.1,2.44.16,3.85,2,.28,3.87.4,5.66.81a24.2,24.2,0,0,1,18.88,20.77c.14,1,.42,1.92.64,2.88Z"/><path class="cls-1" d="M0,67c.37-1.93.64-3.89,1.11-5.8A24.23,24.23,0,0,1,22.35,42.87c.85-.09,1.69-.26,3-.47V32c0-7.24-.05-14.49,0-21.73C25.42,4,29,.12,34.44,0S44,3.92,44.06,10.14c.12,9.37,0,18.74,0,28.11V42.4c2.31.36,4.3.54,6.21,1a24.2,24.2,0,0,1,18.6,23C69.09,73.29,69,80.16,69,87V237.71c0,16.63-7,25-23.54,27.85a9.56,9.56,0,0,0-1.33.48c0,9.66,0,19.38,0,29.11a32.82,32.82,0,0,1-.18,4.86,9.41,9.41,0,0,1-9.57,8.26A9.17,9.17,0,0,1,25.42,299c-.14-9.62-.06-19.24-.07-28.86v-4.31c-2.31-.37-4.41-.57-6.44-1.05A24.35,24.35,0,0,1,.64,244.25C.49,243.16.22,242.09,0,241Z"/><path class="cls-1" d="M226.75,129c12.25,1,20.52,6.62,24,18.17a32.91,32.91,0,0,1,1,9.26c.06,44.47-.22,88.94.2,133.41.13,14.06-5.87,27.34-25.24,29.46,0,4.75.2,9.58-.05,14.39a9.14,9.14,0,0,1-11.83,8.54c-4.05-1.1-6.61-4.63-6.76-9.69-.12-4.35,0-8.71,0-13.26l-3.84-.65c-12.52-2.11-21-11.71-21.06-24.39q-.13-70.08,0-140.16c0-14,9.56-23.56,24.89-25v-5.73c0-2.38,0-4.75,0-7.12.14-6.52,3.95-10.81,9.48-10.75s9.17,4.29,9.24,10.91C226.79,120.46,226.75,124.57,226.75,129Z"/><path class="cls-1" d="M135.45,233.71c0,6.35.1,12.34,0,18.32-.12,5.4-3,9.07-7.4,10-5.88,1.16-10.89-2.79-11.23-9-.18-3.24-.07-6.49-.08-9.74s0-6.22,0-9.48l-3.14-.48c-13-1.95-21.71-11.39-21.8-24.51q-.28-42.9,0-85.81c.1-14,8.79-22.53,24.94-24.94V84.42c0-1.87,0-3.75.06-5.62.3-5.3,4-9.09,8.91-9.32a9.28,9.28,0,0,1,9.63,9c.31,5.22.12,10.48.15,15.73v3.88c2,.27,3.74.38,5.41.74a24.1,24.1,0,0,1,19.43,23.51q.3,43.45,0,86.93c-.08,12.31-8.62,21.73-20.79,23.84C138.31,233.3,137.09,233.46,135.45,233.71Z"/></g></g></svg>