<?xml version="1.0" encoding="UTF-8"?>
<svg id="Layer_2" data-name="Layer 2" xmlns="http://www.w3.org/2000/svg" viewBox="0 0 383.48 383.48">
  <defs>
    <style>
      .cls-1 {
        fill: #fff;
        stroke-width: 0px;
      }
    </style>
  </defs>
  <g id="Layer_1-2" data-name="Layer 1">
    <g>
      <path class="cls-1" d="m135.57,383.48c0-96.32-.02-192.64.08-288.96,0-3.59-.59-4.9-4.56-4.75-9.34.35-18.71.13-28.07.1-5.91-.02-9.95-2.65-11.69-7.52-1.69-4.74-.34-9.13,4.11-12.95,25.56-21.93,51.14-43.86,76.72-65.77C173.63,2.36,175.22,1.21,176.76,0c2.25,0,4.49,0,6.74,0,9.06,5.76,16.62,13.38,24.75,20.27,19.05,16.12,37.93,32.45,56.87,48.69,4.84,4.15,6.32,8.6,4.52,13.51-1.8,4.92-5.83,7.39-12.16,7.4-9.61.02-19.22.11-28.83-.06-2.68-.05-3.32.77-3.28,3.35.15,10.23,0,20.47.11,30.7.02,2.18-.75,3.24-2.61,4.33-43.55,25.42-66.33,63.35-64.46,113.8,1.7,45.75,24.46,79.92,63.95,102.91,2.22,1.29,3.22,2.51,3.13,5.15-.21,6.11-.37,12.25.01,18.34.44,6.98-1.85,12.1-8.32,15.09h-81.64Z"/>
      <path class="cls-1" d="m68.16,383.48c0-70.51,0-141.02,0-211.53,0-9.83,4.04-13.91,13.78-13.91,9.11,0,18.22.14,27.33-.08,3.11-.08,3.9.75,3.9,3.88-.09,73.88-.07,147.76-.07,221.64h-44.94Z"/>
      <path class="cls-1" d="m0,256.15c2.99-6.47,8.1-8.66,15.07-8.33,8.46.39,16.96.27,25.42,0,3.5-.11,4.55.65,4.54,4.39-.15,43.76-.1,87.51-.1,131.27H8.24c-.48-.44-1.13-.5-1.71-.56-3.64-.36-5.73-2.2-5.97-5.97-.04-.58-.11-1.23-.56-1.71v-119.09Z"/>
      <path class="cls-1" d="m382.7,224.29c-7.59-55.13-56.2-93.51-111.6-88.11-56.41,5.5-97.78,58.33-89.66,114.49,7.81,54.02,56.17,91.85,110.57,86.52,43.86-4.3,80.53-37.31,89.41-80.39.61-2.97.37-6.16,2.06-8.89v-21.72c-.93-.36-.68-1.21-.78-1.9Zm-86.74,65.26c-2.38,1.13-3.38,2.32-3.16,4.94.24,2.85.08,5.74.05,8.6-.08,7.21-4.8,12.28-11.35,12.21-6.4-.07-11.03-5.09-11.11-12.08-.03-3.24-.16-6.5.05-9.73.14-2.15-.72-3-2.62-3.75-7.23-2.86-13.16-7.59-18.04-13.57-2.93-3.59-3.44-7.7-1.4-11.93,2.04-4.24,5.65-6.13,10.18-6.4,3.42.26,6.3,1.52,8.56,4.12,2.47,2.84,5.21,5.37,8.69,6.96,4.72,2.16,9.21,2.05,13.26-1.46,3.52-3.05,4.73-7.97,2.98-12.27-2.01-4.94-5.85-7.12-11.11-7.32-16.02-.61-29.31-11.67-32.28-26.74-3.16-15.99,4.57-31.07,19.48-37.7,1.79-.8,2.37-1.66,2.29-3.54-.16-3.49-.11-6.99-.03-10.48.16-6.42,4.93-11.28,11.05-11.36,6.28-.09,11.21,4.81,11.38,11.42.09,3.62.12,7.24-.02,10.85-.07,1.8.58,2.63,2.25,3.25,5.08,1.89,9.61,4.72,13.56,8.44,5.06,4.77,5.55,11.63,1.2,16.35-4.27,4.63-10.93,4.84-16.1.41-2.19-1.87-4.42-3.67-7.13-4.74-4.71-1.86-9.08-1.35-12.83,2.2-3.28,3.1-4.31,7.89-2.54,12.05,2.01,4.73,5.73,7.01,10.84,7.17,10.58.34,19.36,4.51,25.93,12.83,13.49,17.07,7.7,41.85-12.03,51.26Z"/>
    </g>
  </g>
</svg>