<?xml version="1.0" encoding="utf-8"?>
<!-- Generator: Adobe Illustrator 25.0.1, SVG Export Plug-In . SVG Version: 6.00 Build 0)  -->
<svg version="1.0" id="katman_1" xmlns="http://www.w3.org/2000/svg" xmlns:xlink="http://www.w3.org/1999/xlink" x="0px" y="0px"
	 viewBox="0 0 560 400" style="enable-background:new 0 0 560 400;" xml:space="preserve">
<g>
	<path d="M102.2,269.6v-40.7h-12v-12.6h38.5v12.6h-12v40.7H102.2L102.2,269.6z M135.8,269.6v-53.4H151c6,0,10.1,0.3,12.5,0.8
		c2.3,0.5,4.4,1.5,6.1,2.8c1.9,1.5,3.4,3.3,4.4,5.6c1,2.3,1.5,4.8,1.5,7.5c0,4.1-1,7.5-3,10.1c-2,2.6-5,4.3-8.9,5.2l14.5,21.5h-16.4
		l-12.2-20.9v20.9L135.8,269.6L135.8,269.6z M149.4,241.5h2.7c3.1,0,5.4-0.5,6.9-1.6c1.4-1.1,2.2-2.7,2.2-5c0-2.7-0.7-4.6-2-5.7
		s-3.6-1.7-6.8-1.7h-2.9L149.4,241.5L149.4,241.5z"/>
	<path d="M177.4,269.6l18.4-53.4H214l18.4,53.4H218l-2.7-9.6h-20.7l-2.8,9.6L177.4,269.6L177.4,269.6z M197.7,249.7h14.5l-5.4-17.6
		c-0.3-0.9-0.5-1.7-0.7-2.6l-1.1-4.6c-0.3,1.3-0.6,2.6-0.9,3.8c-0.3,1.2-0.6,2.3-0.9,3.4L197.7,249.7L197.7,249.7z M237.5,269.6
		v-53.4h14l20.2,27.4c0.4,0.6,1,1.7,1.9,3.4c0.9,1.7,1.9,3.7,2.9,6c-0.3-2-0.5-3.9-0.6-5.9c-0.1-1.7-0.2-3.3-0.2-4.6v-26.4h14v53.4
		h-14l-20.2-27.6c-0.4-0.6-1.1-1.7-2-3.4c-0.9-1.7-1.9-3.7-2.9-6c0.3,2.2,0.5,4.2,0.6,5.9c0.1,1.7,0.2,3.3,0.2,4.6v26.4H237.5z
		 M303.5,252.4c2.2,2.5,4.3,4.3,6.4,5.5c2.1,1.2,4.2,1.8,6.3,1.8c1.9,0,3.5-0.5,4.8-1.6c1.3-1,1.9-2.4,1.9-4c0-1.8-0.5-3.1-1.6-4.1
		c-1.1-1-3.5-2-7.4-3c-5.2-1.4-8.9-3.2-11.1-5.5c-2.2-2.3-3.2-5.4-3.2-9.3c0-5.1,1.7-9.3,5.1-12.5c3.4-3.2,7.8-4.8,13.3-4.8
		c2.9,0,5.7,0.4,8.4,1.2c2.6,0.8,5.1,2,7.5,3.6l-4.6,10.5c-1.5-1.3-3.2-2.4-5.1-3.2c-1.6-0.7-3.4-1.1-5.2-1.1
		c-1.7,0-3.2,0.4-4.3,1.3c-1,0.7-1.7,1.9-1.6,3.2c0,1.3,0.5,2.4,1.4,3.2c1,0.8,2.8,1.6,5.6,2.3l0.7,0.2c5.9,1.6,9.8,3.4,11.7,5.3
		c1.3,1.3,2.2,2.9,2.9,4.7c0.7,1.8,1,3.9,1,6.1c0,5.7-1.9,10.2-5.6,13.7c-3.7,3.4-8.7,5.2-14.9,5.2c-3.7,0-7.1-0.6-10.2-1.9
		c-3-1.3-6-3.2-8.8-5.9C297,263.2,303.5,252.4,303.5,252.4z M344.5,269.6v-53.4h32.7V228h-18.5v9.3h17.5v11.4h-17.5v21L344.5,269.6
		L344.5,269.6z M385.1,269.6v-53.4h32.7V228h-18.5v9.3h17.5v11.4h-17.5v9h18.5v12L385.1,269.6L385.1,269.6z M427.5,269.6v-53.4h15.2
		c6,0,10.1,0.3,12.5,0.8c2.3,0.5,4.4,1.5,6.1,2.8c1.9,1.5,3.4,3.3,4.4,5.6c1,2.3,1.6,4.8,1.6,7.5c0,4.1-1,7.5-3,10.1
		c-2,2.6-5,4.3-8.9,5.2l14.5,21.5h-16.4l-12.2-20.9v20.9L427.5,269.6L427.5,269.6z M441.1,241.5h2.7c3.1,0,5.4-0.5,6.9-1.6
		c1.4-1.1,2.2-2.7,2.2-5c0-2.7-0.7-4.6-2-5.7c-1.3-1.1-3.6-1.7-6.8-1.7h-2.9V241.5z M257,129.5l9.7,36.6c0.5,1.7,0.9,3.4,1.3,5.2
		c0.4,1.8,0.8,3.8,1.2,6.2c0.5-2.7,1-5,1.3-6.8c0.4-1.8,0.7-3.3,1.1-4.6l9.1-36.6h21.2l-21.8,77.1h-19.5l-9.5-32.9
		c-0.4-1.2-0.9-3.4-1.7-6.8c-0.4-1.5-0.6-2.7-0.8-3.5l-0.7,3.1c-0.6,2.4-1.2,4.8-1.8,7.2l-9.4,32.9H217l-21.7-77.1h21.2l8.8,36.9
		c0.4,1.9,0.8,3.8,1.2,5.7c0.4,1.9,0.8,3.8,1.1,5.8c0.8-3.9,1.7-7.7,2.7-11.5l9.7-36.9C240.1,129.5,257,129.5,257,129.5z
		 M309.7,206.6v-77.1h21.2v77.1C330.9,206.6,309.7,206.6,309.7,206.6z M347.8,206.6v-77.1h22c8.6,0,14.6,0.4,18,1.2
		c3.4,0.8,6.3,2.1,8.8,4c2.8,2.1,5,4.9,6.4,8.1c1.5,3.3,2.2,6.9,2.2,10.8c0,6-1.5,10.8-4.4,14.6c-2.9,3.7-7.2,6.2-12.8,7.4l21,31.1
		h-23.7l-17.7-30.2v30.2H347.8z M367.5,165.9h3.9c4.5,0,7.8-0.8,9.9-2.3c2.1-1.5,3.1-4,3.1-7.3c0-3.9-1-6.6-2.9-8.2
		c-2-1.6-5.2-2.4-9.8-2.4h-4.2V165.9L367.5,165.9z M417,206.6v-77.1h47.2v16.9h-26.7v13.4h25.2v16.5h-25.2v13h26.7v17.3L417,206.6
		L417,206.6z M187,128.9H90.9v15.3H187V128.9z M187,158.6H90.9v15.3H187V158.6z M187,190.9H90.9v15.3H187
		C187,206.2,187,190.9,187,190.9z"/>
</g>
</svg>
