<?xml version="1.0" encoding="UTF-8"?>
<svg id="Layer_2" data-name="Layer 2" xmlns="http://www.w3.org/2000/svg" viewBox="0 0 480 351.94">
  <defs>
    <style>
      .cls-1 {
        fill: #fff;
        stroke-width: 0px;
      }
    </style>
  </defs>
  <g id="Layer_1-2" data-name="Layer 1">
    <g id="Layer_24" data-name="Layer 24">
      <path class="cls-1" d="m480,111.93c.02,4.25-1.65,8.34-4.64,11.36l-96,96c-3.02,2.99-7.11,4.66-11.36,4.64-2.08.03-4.15-.35-6.08-1.12-6.03-2.48-9.95-8.36-9.92-14.88v-48h-144c-8.84,0-16-7.16-16-16v-64c0-8.84,7.16-16,16-16h144V15.93C352.04,7.1,359.23-.04,368.07,0c4.24.02,8.31,1.72,11.29,4.73l96,96c2.96,2.98,4.62,7,4.64,11.2Zm-208,80h-144v-48c-.03-6.46-3.95-12.27-9.92-14.72-5.96-2.51-12.84-1.18-17.44,3.36L4.64,228.57C1.65,231.59-.02,235.68,0,239.93c-.02,4.25,1.65,8.34,4.64,11.36l96,96c3.02,2.99,7.11,4.66,11.36,4.64,2.1.05,4.18-.38,6.08-1.28,5.97-2.45,9.89-8.26,9.92-14.72v-48h144c8.84,0,16-7.16,16-16v-64c0-8.84-7.16-16-16-16Z"/>
    </g>
  </g>
</svg>