<?xml version="1.0" encoding="UTF-8"?>
<svg id="Layer_2" data-name="Layer 2" xmlns="http://www.w3.org/2000/svg" viewBox="0 0 416.82 304.12">
  <defs>
    <style>
      .cls-1 {
        fill: #fff;
        stroke-width: 0px;
      }
    </style>
  </defs>
  <g id="Layer_1-2" data-name="Layer 1">
    <g id="crown">
      <path class="cls-1" d="m416.37,117.55l-39.36,173.92c-1.61,7.51-8.32,12.81-16,12.64H54.45c-7.68.17-14.39-5.13-16-12.64L.37,117.55c-1.31-6,.93-12.21,5.76-16,4.84-3.8,11.44-4.49,16.96-1.76l93.44,45.28L193.97,8.11c4.36-7.69,14.12-10.39,21.81-6.03,2.52,1.43,4.6,3.51,6.03,6.03l77.44,137.12,94.08-45.6c7.81-4.14,17.49-1.16,21.63,6.64,1.83,3.46,2.34,7.47,1.41,11.28h0Z"/>
    </g>
  </g>
</svg>