<?xml version="1.0" encoding="UTF-8"?>
<svg id="Layer_2" data-name="Layer 2" xmlns="http://www.w3.org/2000/svg" viewBox="0 0 437.33 426.67">
  <defs>
    <style>
      .cls-1 {
        fill: #fff;
        stroke-width: 0px;
      }
    </style>
  </defs>
  <g id="Icon">
    <path id="Gift" class="cls-1" d="m165.33,213.33v213.33H53.33c-17.65,0-32-14.35-32-32v-182.41c3.45.7,7.01,1.08,10.67,1.08h133.33Zm21.33,0v213.33h64v-213.33h-64Zm218.67,0h-133.33v213.33h112c17.65,0,32-14.35,32-32v-182.41c-3.45.7-7.01,1.08-10.67,1.08Zm32-96v42.67c0,17.65-14.35,32-32,32H32c-17.65,0-32-14.35-32-32v-42.67c0-17.65,14.35-32,32-32h101.43c-6.73-8.93-10.77-19.99-10.77-32,0-29.41,23.93-53.33,53.33-53.33,17.46,0,32.93,8.47,42.67,21.47,9.74-13,25.21-21.47,42.67-21.47,29.41,0,53.33,23.93,53.33,53.33,0,12.01-4.04,23.07-10.77,32h101.43c17.65,0,32,14.35,32,32ZM229.33,53.33v32h32c17.65,0,32-14.35,32-32s-14.35-32-32-32-32,14.35-32,32Zm-53.33,32h32v-32c0-17.65-14.35-32-32-32s-32,14.35-32,32,14.35,32,32,32Z"/>
  </g>
</svg>